<?xml version="1.0" encoding="UTF-8" standalone="no"?>
<!DOCTYPE svg PUBLIC "-//W3C//DTD SVG 1.1//EN"
 "http://www.w3.org/Graphics/SVG/1.1/DTD/svg11.dtd">
<!-- Generated by graphviz version 2.30.1 (20140127.2004)
 -->
<!-- Title: controllers_diagram Pages: 1 -->
<svg width="1615pt" height="2495pt"
 viewBox="0.00 0.00 1615.38 2494.53" xmlns="http://www.w3.org/2000/svg" xmlns:xlink="http://www.w3.org/1999/xlink">
<g id="graph0" class="graph" transform="scale(1 1) rotate(0) translate(4 2490.53)">
<title>controllers_diagram</title>
<polygon fill="white" stroke="white" points="-4,5 -4,-2490.53 1612.38,-2490.53 1612.38,5 -4,5"/>
<!-- _diagram_info -->
<g id="node1" class="node"><title>_diagram_info</title>
<text text-anchor="start" x="1408" y="-629" font-family="Times,serif" font-size="13.00">Controllers diagram</text>
<text text-anchor="start" x="1408" y="-613.4" font-family="Times,serif" font-size="13.00">Date: Feb 25 2014 &#45; 11:35</text>
<text text-anchor="start" x="1408" y="-597.8" font-family="Times,serif" font-size="13.00">Migration version: 20140218224149</text>
<text text-anchor="start" x="1408" y="-582.2" font-family="Times,serif" font-size="13.00">Generated by RailRoady 1.1.1</text>
<text text-anchor="start" x="1408" y="-566.6" font-family="Times,serif" font-size="13.00">http://railroady.prestonlee.com</text>
</g>
<!-- AccessController -->
<g id="node2" class="node"><title>AccessController</title>
<path fill="none" stroke="black" d="M85.8975,-1204.75C85.8975,-1204.75 264.532,-1204.75 264.532,-1204.75 270.532,-1204.75 276.532,-1210.75 276.532,-1216.75 276.532,-1216.75 276.532,-1358.35 276.532,-1358.35 276.532,-1364.35 270.532,-1370.35 264.532,-1370.35 264.532,-1370.35 85.8975,-1370.35 85.8975,-1370.35 79.8975,-1370.35 73.8975,-1364.35 73.8975,-1358.35 73.8975,-1358.35 73.8975,-1216.75 73.8975,-1216.75 73.8975,-1210.75 79.8975,-1204.75 85.8975,-1204.75"/>
<text text-anchor="middle" x="175.215" y="-1352.35" font-family="Times,serif" font-size="14.00">AccessController</text>
<polyline fill="none" stroke="black" points="73.8975,-1345.55 276.532,-1345.55 "/>
<text text-anchor="start" x="81.8975" y="-1327.55" font-family="Times,serif" font-size="14.00">_one_time_conditions_valid_12?</text>
<text text-anchor="start" x="81.8975" y="-1310.75" font-family="Times,serif" font-size="14.00">attempt_login</text>
<text text-anchor="start" x="81.8975" y="-1293.95" font-family="Times,serif" font-size="14.00">index</text>
<text text-anchor="start" x="81.8975" y="-1277.15" font-family="Times,serif" font-size="14.00">login</text>
<text text-anchor="start" x="81.8975" y="-1260.35" font-family="Times,serif" font-size="14.00">logout</text>
<polyline fill="none" stroke="black" points="73.8975,-1253.55 276.532,-1253.55 "/>
<polyline fill="none" stroke="black" points="73.8975,-1229.55 276.532,-1229.55 "/>
<text text-anchor="start" x="81.8975" y="-1211.55" font-family="Times,serif" font-size="14.00">_layout</text>
</g>
<!-- AdminsController -->
<g id="node3" class="node"><title>AdminsController</title>
<path fill="none" stroke="black" d="M1013.42,-1212.02C1013.42,-1212.02 1192.06,-1212.02 1192.06,-1212.02 1198.06,-1212.02 1204.06,-1218.02 1204.06,-1224.02 1204.06,-1224.02 1204.06,-1365.62 1204.06,-1365.62 1204.06,-1371.62 1198.06,-1377.62 1192.06,-1377.62 1192.06,-1377.62 1013.42,-1377.62 1013.42,-1377.62 1007.42,-1377.62 1001.42,-1371.62 1001.42,-1365.62 1001.42,-1365.62 1001.42,-1224.02 1001.42,-1224.02 1001.42,-1218.02 1007.42,-1212.02 1013.42,-1212.02"/>
<text text-anchor="middle" x="1102.74" y="-1359.62" font-family="Times,serif" font-size="14.00">AdminsController</text>
<polyline fill="none" stroke="black" points="1001.42,-1352.82 1204.06,-1352.82 "/>
<text text-anchor="start" x="1009.42" y="-1334.82" font-family="Times,serif" font-size="14.00">_one_time_conditions_valid_48?</text>
<text text-anchor="start" x="1009.42" y="-1318.02" font-family="Times,serif" font-size="14.00">editAdmin</text>
<text text-anchor="start" x="1009.42" y="-1301.22" font-family="Times,serif" font-size="14.00">index</text>
<text text-anchor="start" x="1009.42" y="-1284.42" font-family="Times,serif" font-size="14.00">listAdmins</text>
<text text-anchor="start" x="1009.42" y="-1267.62" font-family="Times,serif" font-size="14.00">updateAdmin</text>
<polyline fill="none" stroke="black" points="1001.42,-1260.82 1204.06,-1260.82 "/>
<polyline fill="none" stroke="black" points="1001.42,-1236.82 1204.06,-1236.82 "/>
<text text-anchor="start" x="1009.42" y="-1218.82" font-family="Times,serif" font-size="14.00">_layout</text>
</g>
<!-- ApplicationController -->
<g id="node4" class="node"><title>ApplicationController</title>
<path fill="none" stroke="black" d="M539.292,-1279.8C539.292,-1279.8 717.927,-1279.8 717.927,-1279.8 723.927,-1279.8 729.927,-1285.8 729.927,-1291.8 729.927,-1291.8 729.927,-1383.8 729.927,-1383.8 729.927,-1389.8 723.927,-1395.8 717.927,-1395.8 717.927,-1395.8 539.292,-1395.8 539.292,-1395.8 533.292,-1395.8 527.292,-1389.8 527.292,-1383.8 527.292,-1383.8 527.292,-1291.8 527.292,-1291.8 527.292,-1285.8 533.292,-1279.8 539.292,-1279.8"/>
<text text-anchor="middle" x="628.609" y="-1377.8" font-family="Times,serif" font-size="14.00">ApplicationController</text>
<polyline fill="none" stroke="black" points="527.292,-1371 729.927,-1371 "/>
<text text-anchor="start" x="535.292" y="-1353" font-family="Times,serif" font-size="14.00">_one_time_conditions_valid_10?</text>
<polyline fill="none" stroke="black" points="527.292,-1346.2 729.927,-1346.2 "/>
<text text-anchor="start" x="535.292" y="-1328.2" font-family="Times,serif" font-size="14.00">confirm_logged_in</text>
<text text-anchor="start" x="535.292" y="-1311.4" font-family="Times,serif" font-size="14.00">confirm_member_logged_in</text>
<polyline fill="none" stroke="black" points="527.292,-1304.6 729.927,-1304.6 "/>
<text text-anchor="start" x="535.292" y="-1286.6" font-family="Times,serif" font-size="14.00">_layout</text>
</g>
<!-- ApplicationController&#45;&gt;AccessController -->
<g id="edge1" class="edge"><title>ApplicationController&#45;&gt;AccessController</title>
<path fill="none" stroke="black" d="M527.141,-1326.55C452.484,-1318.28 351.423,-1307.08 276.75,-1298.8"/>
</g>
<!-- ApplicationController&#45;&gt;AdminsController -->
<g id="edge2" class="edge"><title>ApplicationController&#45;&gt;AdminsController</title>
<path fill="none" stroke="black" d="M730.031,-1328.6C810.009,-1321.36 921.03,-1311.29 1001.07,-1304.04"/>
</g>
<!-- ContactsController -->
<g id="node5" class="node"><title>ContactsController</title>
<path fill="none" stroke="black" d="M66.8087,-2197.28C66.8087,-2197.28 245.443,-2197.28 245.443,-2197.28 251.443,-2197.28 257.443,-2203.28 257.443,-2209.28 257.443,-2209.28 257.443,-2418.08 257.443,-2418.08 257.443,-2424.08 251.443,-2430.08 245.443,-2430.08 245.443,-2430.08 66.8087,-2430.08 66.8087,-2430.08 60.8087,-2430.08 54.8087,-2424.08 54.8087,-2418.08 54.8087,-2418.08 54.8087,-2209.28 54.8087,-2209.28 54.8087,-2203.28 60.8087,-2197.28 66.8087,-2197.28"/>
<text text-anchor="middle" x="156.126" y="-2412.08" font-family="Times,serif" font-size="14.00">ContactsController</text>
<polyline fill="none" stroke="black" points="54.8087,-2405.28 257.443,-2405.28 "/>
<text text-anchor="start" x="62.8087" y="-2387.28" font-family="Times,serif" font-size="14.00">_one_time_conditions_valid_62?</text>
<text text-anchor="start" x="62.8087" y="-2370.48" font-family="Times,serif" font-size="14.00">createContact</text>
<text text-anchor="start" x="62.8087" y="-2353.68" font-family="Times,serif" font-size="14.00">deleteContact</text>
<text text-anchor="start" x="62.8087" y="-2336.88" font-family="Times,serif" font-size="14.00">destroyContact</text>
<text text-anchor="start" x="62.8087" y="-2320.08" font-family="Times,serif" font-size="14.00">editContact</text>
<text text-anchor="start" x="62.8087" y="-2303.28" font-family="Times,serif" font-size="14.00">index</text>
<text text-anchor="start" x="62.8087" y="-2286.48" font-family="Times,serif" font-size="14.00">newContact</text>
<text text-anchor="start" x="62.8087" y="-2269.68" font-family="Times,serif" font-size="14.00">showContact</text>
<text text-anchor="start" x="62.8087" y="-2252.88" font-family="Times,serif" font-size="14.00">updateContact</text>
<polyline fill="none" stroke="black" points="54.8087,-2246.08 257.443,-2246.08 "/>
<polyline fill="none" stroke="black" points="54.8087,-2222.08 257.443,-2222.08 "/>
<text text-anchor="start" x="62.8087" y="-2204.08" font-family="Times,serif" font-size="14.00">_layout</text>
</g>
<!-- ApplicationController&#45;&gt;ContactsController -->
<g id="edge3" class="edge"><title>ApplicationController&#45;&gt;ContactsController</title>
<path fill="none" stroke="black" d="M575.211,-1395.89C519.07,-1459.5 431.292,-1566.49 375.437,-1671.43 283.131,-1844.87 218.026,-2064.86 183.85,-2197.17"/>
</g>
<!-- EventsController -->
<g id="node6" class="node"><title>EventsController</title>
<path fill="none" stroke="black" d="M728.588,-1626.64C728.588,-1626.64 913.71,-1626.64 913.71,-1626.64 919.71,-1626.64 925.71,-1632.64 925.71,-1638.64 925.71,-1638.64 925.71,-1864.24 925.71,-1864.24 925.71,-1870.24 919.71,-1876.24 913.71,-1876.24 913.71,-1876.24 728.588,-1876.24 728.588,-1876.24 722.588,-1876.24 716.588,-1870.24 716.588,-1864.24 716.588,-1864.24 716.588,-1638.64 716.588,-1638.64 716.588,-1632.64 722.588,-1626.64 728.588,-1626.64"/>
<text text-anchor="middle" x="821.149" y="-1858.24" font-family="Times,serif" font-size="14.00">EventsController</text>
<polyline fill="none" stroke="black" points="716.588,-1851.44 925.71,-1851.44 "/>
<text text-anchor="start" x="724.588" y="-1833.44" font-family="Times,serif" font-size="14.00">_one_time_conditions_valid_110?</text>
<text text-anchor="start" x="724.588" y="-1816.64" font-family="Times,serif" font-size="14.00">createEvents</text>
<text text-anchor="start" x="724.588" y="-1799.84" font-family="Times,serif" font-size="14.00">deleteEvents</text>
<text text-anchor="start" x="724.588" y="-1783.04" font-family="Times,serif" font-size="14.00">destroyEvents</text>
<text text-anchor="start" x="724.588" y="-1766.24" font-family="Times,serif" font-size="14.00">editEvents</text>
<text text-anchor="start" x="724.588" y="-1749.44" font-family="Times,serif" font-size="14.00">index</text>
<text text-anchor="start" x="724.588" y="-1732.64" font-family="Times,serif" font-size="14.00">listEvents</text>
<text text-anchor="start" x="724.588" y="-1715.84" font-family="Times,serif" font-size="14.00">newEvents</text>
<text text-anchor="start" x="724.588" y="-1699.04" font-family="Times,serif" font-size="14.00">showEvents</text>
<text text-anchor="start" x="724.588" y="-1682.24" font-family="Times,serif" font-size="14.00">updateEvents</text>
<polyline fill="none" stroke="black" points="716.588,-1675.44 925.71,-1675.44 "/>
<polyline fill="none" stroke="black" points="716.588,-1651.44 925.71,-1651.44 "/>
<text text-anchor="start" x="724.588" y="-1633.44" font-family="Times,serif" font-size="14.00">_layout</text>
</g>
<!-- ApplicationController&#45;&gt;EventsController -->
<g id="edge4" class="edge"><title>ApplicationController&#45;&gt;EventsController</title>
<path fill="none" stroke="black" d="M655.787,-1396.18C683.516,-1455.76 727.409,-1550.05 763.006,-1626.53"/>
</g>
<!-- HomesController -->
<g id="node7" class="node"><title>HomesController</title>
<path fill="none" stroke="black" d="M390.637,-1674.63C390.637,-1674.63 575.759,-1674.63 575.759,-1674.63 581.759,-1674.63 587.759,-1680.63 587.759,-1686.63 587.759,-1686.63 587.759,-1895.43 587.759,-1895.43 587.759,-1901.43 581.759,-1907.43 575.759,-1907.43 575.759,-1907.43 390.637,-1907.43 390.637,-1907.43 384.637,-1907.43 378.637,-1901.43 378.637,-1895.43 378.637,-1895.43 378.637,-1686.63 378.637,-1686.63 378.637,-1680.63 384.637,-1674.63 390.637,-1674.63"/>
<text text-anchor="middle" x="483.198" y="-1889.43" font-family="Times,serif" font-size="14.00">HomesController</text>
<polyline fill="none" stroke="black" points="378.637,-1882.63 587.759,-1882.63 "/>
<text text-anchor="start" x="386.637" y="-1864.63" font-family="Times,serif" font-size="14.00">_one_time_conditions_valid_112?</text>
<text text-anchor="start" x="386.637" y="-1847.83" font-family="Times,serif" font-size="14.00">createHome</text>
<text text-anchor="start" x="386.637" y="-1831.03" font-family="Times,serif" font-size="14.00">deleteHome</text>
<text text-anchor="start" x="386.637" y="-1814.23" font-family="Times,serif" font-size="14.00">destroyHome</text>
<text text-anchor="start" x="386.637" y="-1797.43" font-family="Times,serif" font-size="14.00">editHome</text>
<text text-anchor="start" x="386.637" y="-1780.63" font-family="Times,serif" font-size="14.00">index</text>
<text text-anchor="start" x="386.637" y="-1763.83" font-family="Times,serif" font-size="14.00">new</text>
<text text-anchor="start" x="386.637" y="-1747.03" font-family="Times,serif" font-size="14.00">showHome</text>
<text text-anchor="start" x="386.637" y="-1730.23" font-family="Times,serif" font-size="14.00">updateHome</text>
<polyline fill="none" stroke="black" points="378.637,-1723.43 587.759,-1723.43 "/>
<polyline fill="none" stroke="black" points="378.637,-1699.43 587.759,-1699.43 "/>
<text text-anchor="start" x="386.637" y="-1681.43" font-family="Times,serif" font-size="14.00">_layout</text>
</g>
<!-- ApplicationController&#45;&gt;HomesController -->
<g id="edge5" class="edge"><title>ApplicationController&#45;&gt;HomesController</title>
<path fill="none" stroke="black" d="M609.897,-1396.12C587.422,-1466.17 549.178,-1585.38 520.574,-1674.54"/>
</g>
<!-- InviteesController -->
<g id="node8" class="node"><title>InviteesController</title>
<path fill="none" stroke="black" d="M185.419,-182.718C185.419,-182.718 371.054,-182.718 371.054,-182.718 377.054,-182.718 383.054,-188.718 383.054,-194.718 383.054,-194.718 383.054,-487.518 383.054,-487.518 383.054,-493.518 377.054,-499.518 371.054,-499.518 371.054,-499.518 185.419,-499.518 185.419,-499.518 179.419,-499.518 173.419,-493.518 173.419,-487.518 173.419,-487.518 173.419,-194.718 173.419,-194.718 173.419,-188.718 179.419,-182.718 185.419,-182.718"/>
<text text-anchor="middle" x="278.236" y="-481.518" font-family="Times,serif" font-size="14.00">InviteesController</text>
<polyline fill="none" stroke="black" points="173.419,-474.718 383.054,-474.718 "/>
<text text-anchor="start" x="181.419" y="-456.718" font-family="Times,serif" font-size="14.00">_one_time_conditions_valid_130?</text>
<text text-anchor="start" x="181.419" y="-439.918" font-family="Times,serif" font-size="14.00">_one_time_conditions_valid_132?</text>
<text text-anchor="start" x="181.419" y="-423.118" font-family="Times,serif" font-size="14.00">create</text>
<text text-anchor="start" x="181.419" y="-406.318" font-family="Times,serif" font-size="14.00">delete</text>
<text text-anchor="start" x="181.419" y="-389.518" font-family="Times,serif" font-size="14.00">destroy</text>
<text text-anchor="start" x="181.419" y="-372.718" font-family="Times,serif" font-size="14.00">edit</text>
<text text-anchor="start" x="181.419" y="-355.918" font-family="Times,serif" font-size="14.00">eventinfo</text>
<text text-anchor="start" x="181.419" y="-339.118" font-family="Times,serif" font-size="14.00">index</text>
<text text-anchor="start" x="181.419" y="-322.318" font-family="Times,serif" font-size="14.00">listInvitees</text>
<text text-anchor="start" x="181.419" y="-305.518" font-family="Times,serif" font-size="14.00">memberResponseHandler</text>
<text text-anchor="start" x="181.419" y="-288.718" font-family="Times,serif" font-size="14.00">new</text>
<text text-anchor="start" x="181.419" y="-271.918" font-family="Times,serif" font-size="14.00">sendEventInvite</text>
<text text-anchor="start" x="181.419" y="-255.118" font-family="Times,serif" font-size="14.00">update</text>
<polyline fill="none" stroke="black" points="173.419,-248.318 383.054,-248.318 "/>
<polyline fill="none" stroke="black" points="173.419,-224.318 383.054,-224.318 "/>
<text text-anchor="start" x="181.419" y="-206.318" font-family="Times,serif" font-size="14.00">_layout</text>
<text text-anchor="start" x="181.419" y="-189.518" font-family="Times,serif" font-size="14.00">find_event</text>
</g>
<!-- ApplicationController&#45;&gt;InviteesController -->
<g id="edge6" class="edge"><title>ApplicationController&#45;&gt;InviteesController</title>
<path fill="none" stroke="black" d="M608.129,-1279.54C555.362,-1129.44 413.355,-725.478 333.935,-499.559"/>
</g>
<!-- ItemsController -->
<g id="node9" class="node"><title>ItemsController</title>
<path fill="none" stroke="black" d="M1065.41,-742.107C1065.41,-742.107 1251.05,-742.107 1251.05,-742.107 1257.05,-742.107 1263.05,-748.107 1263.05,-754.107 1263.05,-754.107 1263.05,-1013.31 1263.05,-1013.31 1263.05,-1019.31 1257.05,-1025.31 1251.05,-1025.31 1251.05,-1025.31 1065.41,-1025.31 1065.41,-1025.31 1059.41,-1025.31 1053.41,-1019.31 1053.41,-1013.31 1053.41,-1013.31 1053.41,-754.107 1053.41,-754.107 1053.41,-748.107 1059.41,-742.107 1065.41,-742.107"/>
<text text-anchor="middle" x="1158.23" y="-1007.31" font-family="Times,serif" font-size="14.00">ItemsController</text>
<polyline fill="none" stroke="black" points="1053.41,-1000.51 1263.05,-1000.51 "/>
<text text-anchor="start" x="1061.41" y="-982.507" font-family="Times,serif" font-size="14.00">_one_time_conditions_valid_158?</text>
<text text-anchor="start" x="1061.41" y="-965.707" font-family="Times,serif" font-size="14.00">_one_time_conditions_valid_160?</text>
<text text-anchor="start" x="1061.41" y="-948.907" font-family="Times,serif" font-size="14.00">createItem</text>
<text text-anchor="start" x="1061.41" y="-932.107" font-family="Times,serif" font-size="14.00">deleteItem</text>
<text text-anchor="start" x="1061.41" y="-915.307" font-family="Times,serif" font-size="14.00">destroyItem</text>
<text text-anchor="start" x="1061.41" y="-898.507" font-family="Times,serif" font-size="14.00">editItem</text>
<text text-anchor="start" x="1061.41" y="-881.707" font-family="Times,serif" font-size="14.00">index</text>
<text text-anchor="start" x="1061.41" y="-864.907" font-family="Times,serif" font-size="14.00">listItem</text>
<text text-anchor="start" x="1061.41" y="-848.107" font-family="Times,serif" font-size="14.00">listItems</text>
<text text-anchor="start" x="1061.41" y="-831.307" font-family="Times,serif" font-size="14.00">new</text>
<text text-anchor="start" x="1061.41" y="-814.507" font-family="Times,serif" font-size="14.00">updateItem</text>
<polyline fill="none" stroke="black" points="1053.41,-807.707 1263.05,-807.707 "/>
<polyline fill="none" stroke="black" points="1053.41,-783.707 1263.05,-783.707 "/>
<text text-anchor="start" x="1061.41" y="-765.707" font-family="Times,serif" font-size="14.00">_layout</text>
<text text-anchor="start" x="1061.41" y="-748.907" font-family="Times,serif" font-size="14.00">find_item</text>
</g>
<!-- ApplicationController&#45;&gt;ItemsController -->
<g id="edge7" class="edge"><title>ApplicationController&#45;&gt;ItemsController</title>
<path fill="none" stroke="black" d="M696.494,-1279.59C786.79,-1202.17 947.315,-1064.54 1053.27,-973.696"/>
</g>
<!-- ManageMembersController -->
<g id="node10" class="node"><title>ManageMembersController</title>
<path fill="none" stroke="black" d="M49.9083,-774.092C49.9083,-774.092 235.543,-774.092 235.543,-774.092 241.543,-774.092 247.543,-780.092 247.543,-786.092 247.543,-786.092 247.543,-961.292 247.543,-961.292 247.543,-967.292 241.543,-973.292 235.543,-973.292 235.543,-973.292 49.9083,-973.292 49.9083,-973.292 43.9083,-973.292 37.9083,-967.292 37.9083,-961.292 37.9083,-961.292 37.9083,-786.092 37.9083,-786.092 37.9083,-780.092 43.9083,-774.092 49.9083,-774.092"/>
<text text-anchor="middle" x="142.726" y="-955.292" font-family="Times,serif" font-size="14.00">ManageMembersController</text>
<polyline fill="none" stroke="black" points="37.9083,-948.492 247.543,-948.492 "/>
<text text-anchor="start" x="45.9083" y="-930.492" font-family="Times,serif" font-size="14.00">_one_time_conditions_valid_164?</text>
<text text-anchor="start" x="45.9083" y="-913.692" font-family="Times,serif" font-size="14.00">deleteMember</text>
<text text-anchor="start" x="45.9083" y="-896.892" font-family="Times,serif" font-size="14.00">destroyMember</text>
<text text-anchor="start" x="45.9083" y="-880.092" font-family="Times,serif" font-size="14.00">editMember</text>
<text text-anchor="start" x="45.9083" y="-863.292" font-family="Times,serif" font-size="14.00">index</text>
<text text-anchor="start" x="45.9083" y="-846.492" font-family="Times,serif" font-size="14.00">listMembers</text>
<text text-anchor="start" x="45.9083" y="-829.692" font-family="Times,serif" font-size="14.00">updateMember</text>
<polyline fill="none" stroke="black" points="37.9083,-822.892 247.543,-822.892 "/>
<polyline fill="none" stroke="black" points="37.9083,-798.892 247.543,-798.892 "/>
<text text-anchor="start" x="45.9083" y="-780.892" font-family="Times,serif" font-size="14.00">_layout</text>
</g>
<!-- ApplicationController&#45;&gt;ManageMembersController -->
<g id="edge8" class="edge"><title>ApplicationController&#45;&gt;ManageMembersController</title>
<path fill="none" stroke="black" d="M567.564,-1279.49C487.277,-1202.8 344.973,-1066.87 247.353,-973.63"/>
</g>
<!-- MemberController -->
<g id="node11" class="node"><title>MemberController</title>
<path fill="none" stroke="black" d="M927.66,-0.5C927.66,-0.5 1113.3,-0.5 1113.3,-0.5 1119.3,-0.5 1125.3,-6.5 1125.3,-12.5 1125.3,-12.5 1125.3,-674.9 1125.3,-674.9 1125.3,-680.9 1119.3,-686.9 1113.3,-686.9 1113.3,-686.9 927.66,-686.9 927.66,-686.9 921.66,-686.9 915.66,-680.9 915.66,-674.9 915.66,-674.9 915.66,-12.5 915.66,-12.5 915.66,-6.5 921.66,-0.5 927.66,-0.5"/>
<text text-anchor="middle" x="1020.48" y="-668.9" font-family="Times,serif" font-size="14.00">MemberController</text>
<polyline fill="none" stroke="black" points="915.66,-662.1 1125.3,-662.1 "/>
<text text-anchor="start" x="923.66" y="-644.1" font-family="Times,serif" font-size="14.00">_one_time_conditions_valid_224?</text>
<text text-anchor="start" x="923.66" y="-627.3" font-family="Times,serif" font-size="14.00">_one_time_conditions_valid_226?</text>
<text text-anchor="start" x="923.66" y="-610.5" font-family="Times,serif" font-size="14.00">_one_time_conditions_valid_228?</text>
<text text-anchor="start" x="923.66" y="-593.7" font-family="Times,serif" font-size="14.00">createItems</text>
<text text-anchor="start" x="923.66" y="-576.9" font-family="Times,serif" font-size="14.00">createRecipes</text>
<text text-anchor="start" x="923.66" y="-560.1" font-family="Times,serif" font-size="14.00">createReviews</text>
<text text-anchor="start" x="923.66" y="-543.3" font-family="Times,serif" font-size="14.00">deleteItems</text>
<text text-anchor="start" x="923.66" y="-526.5" font-family="Times,serif" font-size="14.00">deleteRecipes</text>
<text text-anchor="start" x="923.66" y="-509.7" font-family="Times,serif" font-size="14.00">deleteReviews</text>
<text text-anchor="start" x="923.66" y="-492.9" font-family="Times,serif" font-size="14.00">destroyItems</text>
<text text-anchor="start" x="923.66" y="-476.1" font-family="Times,serif" font-size="14.00">destroyRecipes</text>
<text text-anchor="start" x="923.66" y="-459.3" font-family="Times,serif" font-size="14.00">destroyReviews</text>
<text text-anchor="start" x="923.66" y="-442.5" font-family="Times,serif" font-size="14.00">editItems</text>
<text text-anchor="start" x="923.66" y="-425.7" font-family="Times,serif" font-size="14.00">editMember</text>
<text text-anchor="start" x="923.66" y="-408.9" font-family="Times,serif" font-size="14.00">editRecipes</text>
<text text-anchor="start" x="923.66" y="-392.1" font-family="Times,serif" font-size="14.00">editReviews</text>
<text text-anchor="start" x="923.66" y="-375.3" font-family="Times,serif" font-size="14.00">eventDetails</text>
<text text-anchor="start" x="923.66" y="-358.5" font-family="Times,serif" font-size="14.00">index</text>
<text text-anchor="start" x="923.66" y="-341.7" font-family="Times,serif" font-size="14.00">listContactInfo</text>
<text text-anchor="start" x="923.66" y="-324.9" font-family="Times,serif" font-size="14.00">listEvents</text>
<text text-anchor="start" x="923.66" y="-308.1" font-family="Times,serif" font-size="14.00">listItems</text>
<text text-anchor="start" x="923.66" y="-291.3" font-family="Times,serif" font-size="14.00">listProducts</text>
<text text-anchor="start" x="923.66" y="-274.5" font-family="Times,serif" font-size="14.00">listRecipes</text>
<text text-anchor="start" x="923.66" y="-257.7" font-family="Times,serif" font-size="14.00">listReviews</text>
<text text-anchor="start" x="923.66" y="-240.9" font-family="Times,serif" font-size="14.00">logout</text>
<text text-anchor="start" x="923.66" y="-224.1" font-family="Times,serif" font-size="14.00">memberresponsehandler</text>
<text text-anchor="start" x="923.66" y="-207.3" font-family="Times,serif" font-size="14.00">newItems</text>
<text text-anchor="start" x="923.66" y="-190.5" font-family="Times,serif" font-size="14.00">newRecipes</text>
<text text-anchor="start" x="923.66" y="-173.7" font-family="Times,serif" font-size="14.00">newReviews</text>
<text text-anchor="start" x="923.66" y="-156.9" font-family="Times,serif" font-size="14.00">showAccountInfo</text>
<text text-anchor="start" x="923.66" y="-140.1" font-family="Times,serif" font-size="14.00">updateItems</text>
<text text-anchor="start" x="923.66" y="-123.3" font-family="Times,serif" font-size="14.00">updateMember</text>
<text text-anchor="start" x="923.66" y="-106.5" font-family="Times,serif" font-size="14.00">updateRecipes</text>
<text text-anchor="start" x="923.66" y="-89.7" font-family="Times,serif" font-size="14.00">updateReviews</text>
<polyline fill="none" stroke="black" points="915.66,-82.9 1125.3,-82.9 "/>
<polyline fill="none" stroke="black" points="915.66,-58.9 1125.3,-58.9 "/>
<text text-anchor="start" x="923.66" y="-40.9" font-family="Times,serif" font-size="14.00">_layout</text>
<text text-anchor="start" x="923.66" y="-24.1" font-family="Times,serif" font-size="14.00">find_event</text>
<text text-anchor="start" x="923.66" y="-7.3" font-family="Times,serif" font-size="14.00">find_product</text>
</g>
<!-- ApplicationController&#45;&gt;MemberController -->
<g id="edge9" class="edge"><title>ApplicationController&#45;&gt;MemberController</title>
<path fill="none" stroke="black" d="M651.515,-1279.69C701.957,-1151.73 825.314,-838.794 915.556,-609.867"/>
</g>
<!-- PasswordResetsController -->
<g id="node12" class="node"><title>PasswordResetsController</title>
<path fill="none" stroke="black" d="M581.108,-810.09C581.108,-810.09 720.874,-810.09 720.874,-810.09 726.874,-810.09 732.874,-816.09 732.874,-822.09 732.874,-822.09 732.874,-946.89 732.874,-946.89 732.874,-952.89 726.874,-958.89 720.874,-958.89 720.874,-958.89 581.108,-958.89 581.108,-958.89 575.108,-958.89 569.108,-952.89 569.108,-946.89 569.108,-946.89 569.108,-822.09 569.108,-822.09 569.108,-816.09 575.108,-810.09 581.108,-810.09"/>
<text text-anchor="middle" x="650.991" y="-940.89" font-family="Times,serif" font-size="14.00">PasswordResetsController</text>
<polyline fill="none" stroke="black" points="569.108,-934.09 732.874,-934.09 "/>
<text text-anchor="start" x="577.108" y="-916.09" font-family="Times,serif" font-size="14.00">create</text>
<text text-anchor="start" x="577.108" y="-899.29" font-family="Times,serif" font-size="14.00">edit</text>
<text text-anchor="start" x="577.108" y="-882.49" font-family="Times,serif" font-size="14.00">new</text>
<text text-anchor="start" x="577.108" y="-865.69" font-family="Times,serif" font-size="14.00">update</text>
<polyline fill="none" stroke="black" points="569.108,-858.89 732.874,-858.89 "/>
<polyline fill="none" stroke="black" points="569.108,-834.89 732.874,-834.89 "/>
<text text-anchor="start" x="577.108" y="-816.89" font-family="Times,serif" font-size="14.00">_layout</text>
</g>
<!-- ApplicationController&#45;&gt;PasswordResetsController -->
<g id="edge10" class="edge"><title>ApplicationController&#45;&gt;PasswordResetsController</title>
<path fill="none" stroke="black" d="M631.489,-1279.46C635.527,-1197.68 642.872,-1048.93 647.304,-959.158"/>
</g>
<!-- ProductsController -->
<g id="node13" class="node"><title>ProductsController</title>
<path fill="none" stroke="black" d="M12,-1587.88C12,-1587.88 197.635,-1587.88 197.635,-1587.88 203.635,-1587.88 209.635,-1593.88 209.635,-1599.88 209.635,-1599.88 209.635,-1808.68 209.635,-1808.68 209.635,-1814.68 203.635,-1820.68 197.635,-1820.68 197.635,-1820.68 12,-1820.68 12,-1820.68 6,-1820.68 -1.13687e-13,-1814.68 -1.13687e-13,-1808.68 -1.13687e-13,-1808.68 -1.13687e-13,-1599.88 -1.13687e-13,-1599.88 -1.13687e-13,-1593.88 6,-1587.88 12,-1587.88"/>
<text text-anchor="middle" x="104.817" y="-1802.68" font-family="Times,serif" font-size="14.00">ProductsController</text>
<polyline fill="none" stroke="black" points="-1.13687e-13,-1795.88 209.635,-1795.88 "/>
<text text-anchor="start" x="8" y="-1777.88" font-family="Times,serif" font-size="14.00">_one_time_conditions_valid_246?</text>
<text text-anchor="start" x="8" y="-1761.08" font-family="Times,serif" font-size="14.00">createProduct</text>
<text text-anchor="start" x="8" y="-1744.28" font-family="Times,serif" font-size="14.00">deleteProduct</text>
<text text-anchor="start" x="8" y="-1727.48" font-family="Times,serif" font-size="14.00">destroyProduct</text>
<text text-anchor="start" x="8" y="-1710.68" font-family="Times,serif" font-size="14.00">editProduct</text>
<text text-anchor="start" x="8" y="-1693.88" font-family="Times,serif" font-size="14.00">index</text>
<text text-anchor="start" x="8" y="-1677.08" font-family="Times,serif" font-size="14.00">listProducts</text>
<text text-anchor="start" x="8" y="-1660.28" font-family="Times,serif" font-size="14.00">new</text>
<text text-anchor="start" x="8" y="-1643.48" font-family="Times,serif" font-size="14.00">updateProduct</text>
<polyline fill="none" stroke="black" points="-1.13687e-13,-1636.68 209.635,-1636.68 "/>
<polyline fill="none" stroke="black" points="-1.13687e-13,-1612.68 209.635,-1612.68 "/>
<text text-anchor="start" x="8" y="-1594.68" font-family="Times,serif" font-size="14.00">_layout</text>
</g>
<!-- ApplicationController&#45;&gt;ProductsController -->
<g id="edge11" class="edge"><title>ApplicationController&#45;&gt;ProductsController</title>
<path fill="none" stroke="black" d="M545.613,-1395.87C454.746,-1459.44 308.841,-1561.53 210.015,-1630.68"/>
</g>
<!-- PublicController -->
<g id="node14" class="node"><title>PublicController</title>
<path fill="none" stroke="black" d="M1106.09,-1526.89C1106.09,-1526.89 1291.73,-1526.89 1291.73,-1526.89 1297.73,-1526.89 1303.73,-1532.89 1303.73,-1538.89 1303.73,-1538.89 1303.73,-1882.09 1303.73,-1882.09 1303.73,-1888.09 1297.73,-1894.09 1291.73,-1894.09 1291.73,-1894.09 1106.09,-1894.09 1106.09,-1894.09 1100.09,-1894.09 1094.09,-1888.09 1094.09,-1882.09 1094.09,-1882.09 1094.09,-1538.89 1094.09,-1538.89 1094.09,-1532.89 1100.09,-1526.89 1106.09,-1526.89"/>
<text text-anchor="middle" x="1198.91" y="-1876.09" font-family="Times,serif" font-size="14.00">PublicController</text>
<polyline fill="none" stroke="black" points="1094.09,-1869.29 1303.73,-1869.29 "/>
<text text-anchor="start" x="1102.09" y="-1851.29" font-family="Times,serif" font-size="14.00">_one_time_conditions_valid_250?</text>
<text text-anchor="start" x="1102.09" y="-1834.49" font-family="Times,serif" font-size="14.00">attempt_login</text>
<text text-anchor="start" x="1102.09" y="-1817.69" font-family="Times,serif" font-size="14.00">createMember</text>
<text text-anchor="start" x="1102.09" y="-1800.89" font-family="Times,serif" font-size="14.00">index</text>
<text text-anchor="start" x="1102.09" y="-1784.09" font-family="Times,serif" font-size="14.00">listContacts</text>
<text text-anchor="start" x="1102.09" y="-1767.29" font-family="Times,serif" font-size="14.00">listItems</text>
<text text-anchor="start" x="1102.09" y="-1750.49" font-family="Times,serif" font-size="14.00">listProducts</text>
<text text-anchor="start" x="1102.09" y="-1733.69" font-family="Times,serif" font-size="14.00">listRecipes</text>
<text text-anchor="start" x="1102.09" y="-1716.89" font-family="Times,serif" font-size="14.00">listReviews</text>
<text text-anchor="start" x="1102.09" y="-1700.09" font-family="Times,serif" font-size="14.00">login</text>
<text text-anchor="start" x="1102.09" y="-1683.29" font-family="Times,serif" font-size="14.00">new</text>
<text text-anchor="start" x="1102.09" y="-1666.49" font-family="Times,serif" font-size="14.00">searchItems</text>
<text text-anchor="start" x="1102.09" y="-1649.69" font-family="Times,serif" font-size="14.00">searchRecipes</text>
<text text-anchor="start" x="1102.09" y="-1632.89" font-family="Times,serif" font-size="14.00">searchReviews</text>
<text text-anchor="start" x="1102.09" y="-1616.09" font-family="Times,serif" font-size="14.00">sendemailToMember</text>
<text text-anchor="start" x="1102.09" y="-1599.29" font-family="Times,serif" font-size="14.00">showMember</text>
<polyline fill="none" stroke="black" points="1094.09,-1592.49 1303.73,-1592.49 "/>
<polyline fill="none" stroke="black" points="1094.09,-1568.49 1303.73,-1568.49 "/>
<text text-anchor="start" x="1102.09" y="-1550.49" font-family="Times,serif" font-size="14.00">_layout</text>
<text text-anchor="start" x="1102.09" y="-1533.69" font-family="Times,serif" font-size="14.00">find_product</text>
</g>
<!-- ApplicationController&#45;&gt;PublicController -->
<g id="edge12" class="edge"><title>ApplicationController&#45;&gt;PublicController</title>
<path fill="none" stroke="black" d="M717.405,-1395.83C819.153,-1462.32 985.74,-1571.18 1093.85,-1641.84"/>
</g>
<!-- RecipesController -->
<g id="node15" class="node"><title>RecipesController</title>
<path fill="none" stroke="black" d="M1047.37,-2169.8C1047.37,-2169.8 1233,-2169.8 1233,-2169.8 1239,-2169.8 1245,-2175.8 1245,-2181.8 1245,-2181.8 1245,-2441 1245,-2441 1245,-2447 1239,-2453 1233,-2453 1233,-2453 1047.37,-2453 1047.37,-2453 1041.37,-2453 1035.37,-2447 1035.37,-2441 1035.37,-2441 1035.37,-2181.8 1035.37,-2181.8 1035.37,-2175.8 1041.37,-2169.8 1047.37,-2169.8"/>
<text text-anchor="middle" x="1140.19" y="-2435" font-family="Times,serif" font-size="14.00">RecipesController</text>
<polyline fill="none" stroke="black" points="1035.37,-2428.2 1245,-2428.2 "/>
<text text-anchor="start" x="1043.37" y="-2410.2" font-family="Times,serif" font-size="14.00">_one_time_conditions_valid_278?</text>
<text text-anchor="start" x="1043.37" y="-2393.4" font-family="Times,serif" font-size="14.00">_one_time_conditions_valid_280?</text>
<text text-anchor="start" x="1043.37" y="-2376.6" font-family="Times,serif" font-size="14.00">createRecipe</text>
<text text-anchor="start" x="1043.37" y="-2359.8" font-family="Times,serif" font-size="14.00">deleteRecipe</text>
<text text-anchor="start" x="1043.37" y="-2343" font-family="Times,serif" font-size="14.00">destroyRecipe</text>
<text text-anchor="start" x="1043.37" y="-2326.2" font-family="Times,serif" font-size="14.00">editRecipe</text>
<text text-anchor="start" x="1043.37" y="-2309.4" font-family="Times,serif" font-size="14.00">index</text>
<text text-anchor="start" x="1043.37" y="-2292.6" font-family="Times,serif" font-size="14.00">listRecipe</text>
<text text-anchor="start" x="1043.37" y="-2275.8" font-family="Times,serif" font-size="14.00">listRecipes</text>
<text text-anchor="start" x="1043.37" y="-2259" font-family="Times,serif" font-size="14.00">new</text>
<text text-anchor="start" x="1043.37" y="-2242.2" font-family="Times,serif" font-size="14.00">updateRecipe</text>
<polyline fill="none" stroke="black" points="1035.37,-2235.4 1245,-2235.4 "/>
<polyline fill="none" stroke="black" points="1035.37,-2211.4 1245,-2211.4 "/>
<text text-anchor="start" x="1043.37" y="-2193.4" font-family="Times,serif" font-size="14.00">_layout</text>
<text text-anchor="start" x="1043.37" y="-2176.6" font-family="Times,serif" font-size="14.00">find_recipe</text>
</g>
<!-- ApplicationController&#45;&gt;RecipesController -->
<g id="edge13" class="edge"><title>ApplicationController&#45;&gt;RecipesController</title>
<path fill="none" stroke="black" d="M709.868,-1395.91C777.528,-1448.27 871.733,-1531.05 928.91,-1623.44 1035.1,-1795.02 1091.39,-2023.91 1118.48,-2169.52"/>
</g>
<!-- ReviewsController -->
<g id="node16" class="node"><title>ReviewsController</title>
<path fill="none" stroke="black" d="M559.499,-2219.63C559.499,-2219.63 745.134,-2219.63 745.134,-2219.63 751.134,-2219.63 757.134,-2225.63 757.134,-2231.63 757.134,-2231.63 757.134,-2474.03 757.134,-2474.03 757.134,-2480.03 751.134,-2486.03 745.134,-2486.03 745.134,-2486.03 559.499,-2486.03 559.499,-2486.03 553.499,-2486.03 547.499,-2480.03 547.499,-2474.03 547.499,-2474.03 547.499,-2231.63 547.499,-2231.63 547.499,-2225.63 553.499,-2219.63 559.499,-2219.63"/>
<text text-anchor="middle" x="652.316" y="-2468.03" font-family="Times,serif" font-size="14.00">ReviewsController</text>
<polyline fill="none" stroke="black" points="547.499,-2461.23 757.134,-2461.23 "/>
<text text-anchor="start" x="555.499" y="-2443.23" font-family="Times,serif" font-size="14.00">_one_time_conditions_valid_310?</text>
<text text-anchor="start" x="555.499" y="-2426.43" font-family="Times,serif" font-size="14.00">_one_time_conditions_valid_314?</text>
<text text-anchor="start" x="555.499" y="-2409.63" font-family="Times,serif" font-size="14.00">createReview</text>
<text text-anchor="start" x="555.499" y="-2392.83" font-family="Times,serif" font-size="14.00">deleteReview</text>
<text text-anchor="start" x="555.499" y="-2376.03" font-family="Times,serif" font-size="14.00">destroyReview</text>
<text text-anchor="start" x="555.499" y="-2359.23" font-family="Times,serif" font-size="14.00">editReview</text>
<text text-anchor="start" x="555.499" y="-2342.43" font-family="Times,serif" font-size="14.00">index</text>
<text text-anchor="start" x="555.499" y="-2325.63" font-family="Times,serif" font-size="14.00">listReviews</text>
<text text-anchor="start" x="555.499" y="-2308.83" font-family="Times,serif" font-size="14.00">new</text>
<text text-anchor="start" x="555.499" y="-2292.03" font-family="Times,serif" font-size="14.00">updateReview</text>
<polyline fill="none" stroke="black" points="547.499,-2285.23 757.134,-2285.23 "/>
<polyline fill="none" stroke="black" points="547.499,-2261.23 757.134,-2261.23 "/>
<text text-anchor="start" x="555.499" y="-2243.23" font-family="Times,serif" font-size="14.00">_layout</text>
<text text-anchor="start" x="555.499" y="-2226.43" font-family="Times,serif" font-size="14.00">find_product</text>
</g>
<!-- ApplicationController&#45;&gt;ReviewsController -->
<g id="edge14" class="edge"><title>ApplicationController&#45;&gt;ReviewsController</title>
<path fill="none" stroke="black" d="M629.969,-1396.02C633.666,-1554.3 643.973,-1995.59 649.196,-2219.25"/>
</g>
</g>
</svg>
