<?xml version="1.0" encoding="UTF-8" standalone="no"?>
<!DOCTYPE svg PUBLIC "-//W3C//DTD SVG 1.1//EN"
 "http://www.w3.org/Graphics/SVG/1.1/DTD/svg11.dtd">
<!-- Generated by graphviz version 2.30.1 (20140127.2004)
 -->
<!-- Title: controllers_diagram Pages: 1 -->
<svg width="1515pt" height="2326pt"
 viewBox="0.00 0.00 1515.38 2325.81" xmlns="http://www.w3.org/2000/svg" xmlns:xlink="http://www.w3.org/1999/xlink">
<g id="graph0" class="graph" transform="scale(1 1) rotate(0) translate(4 2321.81)">
<title>controllers_diagram</title>
<polygon fill="white" stroke="white" points="-4,5 -4,-2321.81 1512.38,-2321.81 1512.38,5 -4,5"/>
<!-- _diagram_info -->
<g id="node1" class="node"><title>_diagram_info</title>
<text text-anchor="start" x="1308" y="-589" font-family="Times,serif" font-size="13.00">Controllers diagram</text>
<text text-anchor="start" x="1308" y="-573.4" font-family="Times,serif" font-size="13.00">Date: Jan 27 2014 &#45; 12:38</text>
<text text-anchor="start" x="1308" y="-557.8" font-family="Times,serif" font-size="13.00">Migration version: 20140126061904</text>
<text text-anchor="start" x="1308" y="-542.2" font-family="Times,serif" font-size="13.00">Generated by RailRoady 1.1.1</text>
<text text-anchor="start" x="1308" y="-526.6" font-family="Times,serif" font-size="13.00">http://railroady.prestonlee.com</text>
</g>
<!-- AccessController -->
<g id="node2" class="node"><title>AccessController</title>
<path fill="none" stroke="black" d="M75.2175,-1090.9C75.2175,-1090.9 253.852,-1090.9 253.852,-1090.9 259.852,-1090.9 265.852,-1096.9 265.852,-1102.9 265.852,-1102.9 265.852,-1294.9 265.852,-1294.9 265.852,-1300.9 259.852,-1306.9 253.852,-1306.9 253.852,-1306.9 75.2175,-1306.9 75.2175,-1306.9 69.2175,-1306.9 63.2175,-1300.9 63.2175,-1294.9 63.2175,-1294.9 63.2175,-1102.9 63.2175,-1102.9 63.2175,-1096.9 69.2175,-1090.9 75.2175,-1090.9"/>
<text text-anchor="middle" x="164.535" y="-1288.9" font-family="Times,serif" font-size="14.00">AccessController</text>
<polyline fill="none" stroke="black" points="63.2175,-1282.1 265.852,-1282.1 "/>
<text text-anchor="start" x="71.2175" y="-1264.1" font-family="Times,serif" font-size="14.00">_one_time_conditions_valid_12?</text>
<text text-anchor="start" x="71.2175" y="-1247.3" font-family="Times,serif" font-size="14.00">attempt_login</text>
<text text-anchor="start" x="71.2175" y="-1230.5" font-family="Times,serif" font-size="14.00">create</text>
<text text-anchor="start" x="71.2175" y="-1213.7" font-family="Times,serif" font-size="14.00">index</text>
<text text-anchor="start" x="71.2175" y="-1196.9" font-family="Times,serif" font-size="14.00">listMembers</text>
<text text-anchor="start" x="71.2175" y="-1180.1" font-family="Times,serif" font-size="14.00">login</text>
<text text-anchor="start" x="71.2175" y="-1163.3" font-family="Times,serif" font-size="14.00">logout</text>
<text text-anchor="start" x="71.2175" y="-1146.5" font-family="Times,serif" font-size="14.00">new</text>
<polyline fill="none" stroke="black" points="63.2175,-1139.7 265.852,-1139.7 "/>
<polyline fill="none" stroke="black" points="63.2175,-1115.7 265.852,-1115.7 "/>
<text text-anchor="start" x="71.2175" y="-1097.7" font-family="Times,serif" font-size="14.00">_layout</text>
</g>
<!-- AdminsController -->
<g id="node3" class="node"><title>AdminsController</title>
<path fill="none" stroke="black" d="M923.084,-1102.27C923.084,-1102.27 1101.72,-1102.27 1101.72,-1102.27 1107.72,-1102.27 1113.72,-1108.27 1113.72,-1114.27 1113.72,-1114.27 1113.72,-1306.27 1113.72,-1306.27 1113.72,-1312.27 1107.72,-1318.27 1101.72,-1318.27 1101.72,-1318.27 923.084,-1318.27 923.084,-1318.27 917.084,-1318.27 911.084,-1312.27 911.084,-1306.27 911.084,-1306.27 911.084,-1114.27 911.084,-1114.27 911.084,-1108.27 917.084,-1102.27 923.084,-1102.27"/>
<text text-anchor="middle" x="1012.4" y="-1300.27" font-family="Times,serif" font-size="14.00">AdminsController</text>
<polyline fill="none" stroke="black" points="911.084,-1293.47 1113.72,-1293.47 "/>
<text text-anchor="start" x="919.084" y="-1275.47" font-family="Times,serif" font-size="14.00">_one_time_conditions_valid_42?</text>
<text text-anchor="start" x="919.084" y="-1258.67" font-family="Times,serif" font-size="14.00">create</text>
<text text-anchor="start" x="919.084" y="-1241.87" font-family="Times,serif" font-size="14.00">destroy</text>
<text text-anchor="start" x="919.084" y="-1225.07" font-family="Times,serif" font-size="14.00">edit</text>
<text text-anchor="start" x="919.084" y="-1208.27" font-family="Times,serif" font-size="14.00">index</text>
<text text-anchor="start" x="919.084" y="-1191.47" font-family="Times,serif" font-size="14.00">new</text>
<text text-anchor="start" x="919.084" y="-1174.67" font-family="Times,serif" font-size="14.00">show</text>
<text text-anchor="start" x="919.084" y="-1157.87" font-family="Times,serif" font-size="14.00">update</text>
<polyline fill="none" stroke="black" points="911.084,-1151.07 1113.72,-1151.07 "/>
<polyline fill="none" stroke="black" points="911.084,-1127.07 1113.72,-1127.07 "/>
<text text-anchor="start" x="919.084" y="-1109.07" font-family="Times,serif" font-size="14.00">_layout</text>
</g>
<!-- ApplicationController -->
<g id="node4" class="node"><title>ApplicationController</title>
<path fill="none" stroke="black" d="M488.516,-1202.37C488.516,-1202.37 667.15,-1202.37 667.15,-1202.37 673.15,-1202.37 679.15,-1208.37 679.15,-1214.37 679.15,-1214.37 679.15,-1306.37 679.15,-1306.37 679.15,-1312.37 673.15,-1318.37 667.15,-1318.37 667.15,-1318.37 488.516,-1318.37 488.516,-1318.37 482.516,-1318.37 476.516,-1312.37 476.516,-1306.37 476.516,-1306.37 476.516,-1214.37 476.516,-1214.37 476.516,-1208.37 482.516,-1202.37 488.516,-1202.37"/>
<text text-anchor="middle" x="577.833" y="-1300.37" font-family="Times,serif" font-size="14.00">ApplicationController</text>
<polyline fill="none" stroke="black" points="476.516,-1293.57 679.15,-1293.57 "/>
<text text-anchor="start" x="484.516" y="-1275.57" font-family="Times,serif" font-size="14.00">_one_time_conditions_valid_10?</text>
<polyline fill="none" stroke="black" points="476.516,-1268.77 679.15,-1268.77 "/>
<text text-anchor="start" x="484.516" y="-1250.77" font-family="Times,serif" font-size="14.00">confirm_logged_in</text>
<text text-anchor="start" x="484.516" y="-1233.97" font-family="Times,serif" font-size="14.00">confirm_member_logged_in</text>
<polyline fill="none" stroke="black" points="476.516,-1227.17 679.15,-1227.17 "/>
<text text-anchor="start" x="484.516" y="-1209.17" font-family="Times,serif" font-size="14.00">_layout</text>
</g>
<!-- ApplicationController&#45;&gt;AccessController -->
<g id="edge1" class="edge"><title>ApplicationController&#45;&gt;AccessController</title>
<path fill="none" stroke="black" d="M476.464,-1245.3C412.414,-1235.77 329.952,-1223.51 265.901,-1213.98"/>
</g>
<!-- ApplicationController&#45;&gt;AdminsController -->
<g id="edge2" class="edge"><title>ApplicationController&#45;&gt;AdminsController</title>
<path fill="none" stroke="black" d="M679.172,-1248.69C748.895,-1240.65 841.144,-1230.02 910.902,-1221.98"/>
</g>
<!-- ContactsController -->
<g id="node5" class="node"><title>ContactsController</title>
<path fill="none" stroke="black" d="M58.5401,-2038.7C58.5401,-2038.7 237.175,-2038.7 237.175,-2038.7 243.175,-2038.7 249.175,-2044.7 249.175,-2050.7 249.175,-2050.7 249.175,-2242.7 249.175,-2242.7 249.175,-2248.7 243.175,-2254.7 237.175,-2254.7 237.175,-2254.7 58.5401,-2254.7 58.5401,-2254.7 52.5401,-2254.7 46.5401,-2248.7 46.5401,-2242.7 46.5401,-2242.7 46.5401,-2050.7 46.5401,-2050.7 46.5401,-2044.7 52.5401,-2038.7 58.5401,-2038.7"/>
<text text-anchor="middle" x="147.857" y="-2236.7" font-family="Times,serif" font-size="14.00">ContactsController</text>
<polyline fill="none" stroke="black" points="46.5401,-2229.9 249.175,-2229.9 "/>
<text text-anchor="start" x="54.5401" y="-2211.9" font-family="Times,serif" font-size="14.00">_one_time_conditions_valid_44?</text>
<text text-anchor="start" x="54.5401" y="-2195.1" font-family="Times,serif" font-size="14.00">create</text>
<text text-anchor="start" x="54.5401" y="-2178.3" font-family="Times,serif" font-size="14.00">destroy</text>
<text text-anchor="start" x="54.5401" y="-2161.5" font-family="Times,serif" font-size="14.00">edit</text>
<text text-anchor="start" x="54.5401" y="-2144.7" font-family="Times,serif" font-size="14.00">index</text>
<text text-anchor="start" x="54.5401" y="-2127.9" font-family="Times,serif" font-size="14.00">new</text>
<text text-anchor="start" x="54.5401" y="-2111.1" font-family="Times,serif" font-size="14.00">show</text>
<text text-anchor="start" x="54.5401" y="-2094.3" font-family="Times,serif" font-size="14.00">update</text>
<polyline fill="none" stroke="black" points="46.5401,-2087.5 249.175,-2087.5 "/>
<polyline fill="none" stroke="black" points="46.5401,-2063.5 249.175,-2063.5 "/>
<text text-anchor="start" x="54.5401" y="-2045.5" font-family="Times,serif" font-size="14.00">_layout</text>
</g>
<!-- ApplicationController&#45;&gt;ContactsController -->
<g id="edge3" class="edge"><title>ApplicationController&#45;&gt;ContactsController</title>
<path fill="none" stroke="black" d="M529.279,-1318.58C476.938,-1383.56 393.872,-1493.47 339.756,-1598.69 264.952,-1744.14 207.884,-1925.35 176.119,-2038.56"/>
</g>
<!-- EventsController -->
<g id="node6" class="node"><title>EventsController</title>
<path fill="none" stroke="black" d="M664.655,-1516.85C664.655,-1516.85 843.29,-1516.85 843.29,-1516.85 849.29,-1516.85 855.29,-1522.85 855.29,-1528.85 855.29,-1528.85 855.29,-1754.45 855.29,-1754.45 855.29,-1760.45 849.29,-1766.45 843.29,-1766.45 843.29,-1766.45 664.655,-1766.45 664.655,-1766.45 658.655,-1766.45 652.655,-1760.45 652.655,-1754.45 652.655,-1754.45 652.655,-1528.85 652.655,-1528.85 652.655,-1522.85 658.655,-1516.85 664.655,-1516.85"/>
<text text-anchor="middle" x="753.973" y="-1748.45" font-family="Times,serif" font-size="14.00">EventsController</text>
<polyline fill="none" stroke="black" points="652.655,-1741.65 855.29,-1741.65 "/>
<text text-anchor="start" x="660.655" y="-1723.65" font-family="Times,serif" font-size="14.00">_one_time_conditions_valid_76?</text>
<text text-anchor="start" x="660.655" y="-1706.85" font-family="Times,serif" font-size="14.00">createEvents</text>
<text text-anchor="start" x="660.655" y="-1690.05" font-family="Times,serif" font-size="14.00">deleteEvents</text>
<text text-anchor="start" x="660.655" y="-1673.25" font-family="Times,serif" font-size="14.00">destroyEvents</text>
<text text-anchor="start" x="660.655" y="-1656.45" font-family="Times,serif" font-size="14.00">editEvents</text>
<text text-anchor="start" x="660.655" y="-1639.65" font-family="Times,serif" font-size="14.00">index</text>
<text text-anchor="start" x="660.655" y="-1622.85" font-family="Times,serif" font-size="14.00">listEvents</text>
<text text-anchor="start" x="660.655" y="-1606.05" font-family="Times,serif" font-size="14.00">newEvents</text>
<text text-anchor="start" x="660.655" y="-1589.25" font-family="Times,serif" font-size="14.00">showEvents</text>
<text text-anchor="start" x="660.655" y="-1572.45" font-family="Times,serif" font-size="14.00">updateEvents</text>
<polyline fill="none" stroke="black" points="652.655,-1565.65 855.29,-1565.65 "/>
<polyline fill="none" stroke="black" points="652.655,-1541.65 855.29,-1541.65 "/>
<text text-anchor="start" x="660.655" y="-1523.65" font-family="Times,serif" font-size="14.00">_layout</text>
</g>
<!-- ApplicationController&#45;&gt;EventsController -->
<g id="edge4" class="edge"><title>ApplicationController&#45;&gt;EventsController</title>
<path fill="none" stroke="black" d="M604.777,-1318.7C629.014,-1371.16 665.439,-1450.01 696.231,-1516.66"/>
</g>
<!-- HomesController -->
<g id="node7" class="node"><title>HomesController</title>
<path fill="none" stroke="black" d="M354.956,-1601.89C354.956,-1601.89 533.59,-1601.89 533.59,-1601.89 539.59,-1601.89 545.59,-1607.89 545.59,-1613.89 545.59,-1613.89 545.59,-1755.49 545.59,-1755.49 545.59,-1761.49 539.59,-1767.49 533.59,-1767.49 533.59,-1767.49 354.956,-1767.49 354.956,-1767.49 348.956,-1767.49 342.956,-1761.49 342.956,-1755.49 342.956,-1755.49 342.956,-1613.89 342.956,-1613.89 342.956,-1607.89 348.956,-1601.89 354.956,-1601.89"/>
<text text-anchor="middle" x="444.273" y="-1749.49" font-family="Times,serif" font-size="14.00">HomesController</text>
<polyline fill="none" stroke="black" points="342.956,-1742.69 545.59,-1742.69 "/>
<text text-anchor="start" x="350.956" y="-1724.69" font-family="Times,serif" font-size="14.00">_one_time_conditions_valid_78?</text>
<text text-anchor="start" x="350.956" y="-1707.89" font-family="Times,serif" font-size="14.00">edit</text>
<text text-anchor="start" x="350.956" y="-1691.09" font-family="Times,serif" font-size="14.00">index</text>
<text text-anchor="start" x="350.956" y="-1674.29" font-family="Times,serif" font-size="14.00">show</text>
<text text-anchor="start" x="350.956" y="-1657.49" font-family="Times,serif" font-size="14.00">update</text>
<polyline fill="none" stroke="black" points="342.956,-1650.69 545.59,-1650.69 "/>
<polyline fill="none" stroke="black" points="342.956,-1626.69 545.59,-1626.69 "/>
<text text-anchor="start" x="350.956" y="-1608.69" font-family="Times,serif" font-size="14.00">_layout</text>
</g>
<!-- ApplicationController&#45;&gt;HomesController -->
<g id="edge5" class="edge"><title>ApplicationController&#45;&gt;HomesController</title>
<path fill="none" stroke="black" d="M559.542,-1318.48C536.466,-1391.8 496.63,-1518.35 470.365,-1601.8"/>
</g>
<!-- InviteesController -->
<g id="node8" class="node"><title>InviteesController</title>
<path fill="none" stroke="black" d="M171.907,-190.96C171.907,-190.96 350.541,-190.96 350.541,-190.96 356.541,-190.96 362.541,-196.96 362.541,-202.96 362.541,-202.96 362.541,-478.96 362.541,-478.96 362.541,-484.96 356.541,-490.96 350.541,-490.96 350.541,-490.96 171.907,-490.96 171.907,-490.96 165.907,-490.96 159.907,-484.96 159.907,-478.96 159.907,-478.96 159.907,-202.96 159.907,-202.96 159.907,-196.96 165.907,-190.96 171.907,-190.96"/>
<text text-anchor="middle" x="261.224" y="-472.96" font-family="Times,serif" font-size="14.00">InviteesController</text>
<polyline fill="none" stroke="black" points="159.907,-466.16 362.541,-466.16 "/>
<text text-anchor="start" x="167.907" y="-448.16" font-family="Times,serif" font-size="14.00">_one_time_conditions_valid_82?</text>
<text text-anchor="start" x="167.907" y="-431.36" font-family="Times,serif" font-size="14.00">_one_time_conditions_valid_84?</text>
<text text-anchor="start" x="167.907" y="-414.56" font-family="Times,serif" font-size="14.00">create</text>
<text text-anchor="start" x="167.907" y="-397.76" font-family="Times,serif" font-size="14.00">deleteInvitee</text>
<text text-anchor="start" x="167.907" y="-380.96" font-family="Times,serif" font-size="14.00">destroyInvitee</text>
<text text-anchor="start" x="167.907" y="-364.16" font-family="Times,serif" font-size="14.00">editInvitee</text>
<text text-anchor="start" x="167.907" y="-347.36" font-family="Times,serif" font-size="14.00">eventinfo</text>
<text text-anchor="start" x="167.907" y="-330.56" font-family="Times,serif" font-size="14.00">index</text>
<text text-anchor="start" x="167.907" y="-313.76" font-family="Times,serif" font-size="14.00">memberResponseHandler</text>
<text text-anchor="start" x="167.907" y="-296.96" font-family="Times,serif" font-size="14.00">new</text>
<text text-anchor="start" x="167.907" y="-280.16" font-family="Times,serif" font-size="14.00">sendEventInvite</text>
<text text-anchor="start" x="167.907" y="-263.36" font-family="Times,serif" font-size="14.00">updateInvitee</text>
<polyline fill="none" stroke="black" points="159.907,-256.56 362.541,-256.56 "/>
<polyline fill="none" stroke="black" points="159.907,-232.56 362.541,-232.56 "/>
<text text-anchor="start" x="167.907" y="-214.56" font-family="Times,serif" font-size="14.00">_layout</text>
<text text-anchor="start" x="167.907" y="-197.76" font-family="Times,serif" font-size="14.00">find_event</text>
</g>
<!-- ApplicationController&#45;&gt;InviteesController -->
<g id="edge6" class="edge"><title>ApplicationController&#45;&gt;InviteesController</title>
<path fill="none" stroke="black" d="M557.788,-1202.16C509.26,-1061.24 384.222,-698.141 312.964,-491.21"/>
</g>
<!-- ItemsController -->
<g id="node9" class="node"><title>ItemsController</title>
<path fill="none" stroke="black" d="M966.665,-718.442C966.665,-718.442 1152.3,-718.442 1152.3,-718.442 1158.3,-718.442 1164.3,-724.442 1164.3,-730.442 1164.3,-730.442 1164.3,-922.442 1164.3,-922.442 1164.3,-928.442 1158.3,-934.442 1152.3,-934.442 1152.3,-934.442 966.665,-934.442 966.665,-934.442 960.665,-934.442 954.665,-928.442 954.665,-922.442 954.665,-922.442 954.665,-730.442 954.665,-730.442 954.665,-724.442 960.665,-718.442 966.665,-718.442"/>
<text text-anchor="middle" x="1059.48" y="-916.442" font-family="Times,serif" font-size="14.00">ItemsController</text>
<polyline fill="none" stroke="black" points="954.665,-909.642 1164.3,-909.642 "/>
<text text-anchor="start" x="962.665" y="-891.642" font-family="Times,serif" font-size="14.00">_one_time_conditions_valid_104?</text>
<text text-anchor="start" x="962.665" y="-874.842" font-family="Times,serif" font-size="14.00">create</text>
<text text-anchor="start" x="962.665" y="-858.042" font-family="Times,serif" font-size="14.00">destroy</text>
<text text-anchor="start" x="962.665" y="-841.242" font-family="Times,serif" font-size="14.00">edit</text>
<text text-anchor="start" x="962.665" y="-824.442" font-family="Times,serif" font-size="14.00">index</text>
<text text-anchor="start" x="962.665" y="-807.642" font-family="Times,serif" font-size="14.00">new</text>
<text text-anchor="start" x="962.665" y="-790.842" font-family="Times,serif" font-size="14.00">show</text>
<text text-anchor="start" x="962.665" y="-774.042" font-family="Times,serif" font-size="14.00">update</text>
<polyline fill="none" stroke="black" points="954.665,-767.242 1164.3,-767.242 "/>
<polyline fill="none" stroke="black" points="954.665,-743.242 1164.3,-743.242 "/>
<text text-anchor="start" x="962.665" y="-725.242" font-family="Times,serif" font-size="14.00">_layout</text>
</g>
<!-- ApplicationController&#45;&gt;ItemsController -->
<g id="edge7" class="edge"><title>ApplicationController&#45;&gt;ItemsController</title>
<path fill="none" stroke="black" d="M642.291,-1202.3C722.14,-1130.36 859.252,-1006.84 954.393,-921.12"/>
</g>
<!-- ManageMembersController -->
<g id="node10" class="node"><title>ManageMembersController</title>
<path fill="none" stroke="black" d="M43.848,-707.618C43.848,-707.618 229.483,-707.618 229.483,-707.618 235.483,-707.618 241.483,-713.618 241.483,-719.618 241.483,-719.618 241.483,-911.618 241.483,-911.618 241.483,-917.618 235.483,-923.618 229.483,-923.618 229.483,-923.618 43.848,-923.618 43.848,-923.618 37.848,-923.618 31.848,-917.618 31.848,-911.618 31.848,-911.618 31.848,-719.618 31.848,-719.618 31.848,-713.618 37.848,-707.618 43.848,-707.618"/>
<text text-anchor="middle" x="136.665" y="-905.618" font-family="Times,serif" font-size="14.00">ManageMembersController</text>
<polyline fill="none" stroke="black" points="31.848,-898.818 241.483,-898.818 "/>
<text text-anchor="start" x="39.848" y="-880.818" font-family="Times,serif" font-size="14.00">_one_time_conditions_valid_106?</text>
<text text-anchor="start" x="39.848" y="-864.018" font-family="Times,serif" font-size="14.00">createMember</text>
<text text-anchor="start" x="39.848" y="-847.218" font-family="Times,serif" font-size="14.00">deleteMember</text>
<text text-anchor="start" x="39.848" y="-830.418" font-family="Times,serif" font-size="14.00">destroyMember</text>
<text text-anchor="start" x="39.848" y="-813.618" font-family="Times,serif" font-size="14.00">editMember</text>
<text text-anchor="start" x="39.848" y="-796.818" font-family="Times,serif" font-size="14.00">listMembers</text>
<text text-anchor="start" x="39.848" y="-780.018" font-family="Times,serif" font-size="14.00">newMember</text>
<text text-anchor="start" x="39.848" y="-763.218" font-family="Times,serif" font-size="14.00">updateMember</text>
<polyline fill="none" stroke="black" points="31.848,-756.418 241.483,-756.418 "/>
<polyline fill="none" stroke="black" points="31.848,-732.418 241.483,-732.418 "/>
<text text-anchor="start" x="39.848" y="-714.418" font-family="Times,serif" font-size="14.00">_layout</text>
</g>
<!-- ApplicationController&#45;&gt;ManageMembersController -->
<g id="edge8" class="edge"><title>ApplicationController&#45;&gt;ManageMembersController</title>
<path fill="none" stroke="black" d="M520.158,-1202.23C449.622,-1131.12 328.874,-1009.39 241.688,-921.495"/>
</g>
<!-- MemberController -->
<g id="node11" class="node"><title>MemberController</title>
<path fill="none" stroke="black" d="M841.483,-0.5C841.483,-0.5 1027.12,-0.5 1027.12,-0.5 1033.12,-0.5 1039.12,-6.5 1039.12,-12.5 1039.12,-12.5 1039.12,-674.9 1039.12,-674.9 1039.12,-680.9 1033.12,-686.9 1027.12,-686.9 1027.12,-686.9 841.483,-686.9 841.483,-686.9 835.483,-686.9 829.483,-680.9 829.483,-674.9 829.483,-674.9 829.483,-12.5 829.483,-12.5 829.483,-6.5 835.483,-0.5 841.483,-0.5"/>
<text text-anchor="middle" x="934.3" y="-668.9" font-family="Times,serif" font-size="14.00">MemberController</text>
<polyline fill="none" stroke="black" points="829.483,-662.1 1039.12,-662.1 "/>
<text text-anchor="start" x="837.483" y="-644.1" font-family="Times,serif" font-size="14.00">_one_time_conditions_valid_194?</text>
<text text-anchor="start" x="837.483" y="-627.3" font-family="Times,serif" font-size="14.00">_one_time_conditions_valid_196?</text>
<text text-anchor="start" x="837.483" y="-610.5" font-family="Times,serif" font-size="14.00">_one_time_conditions_valid_198?</text>
<text text-anchor="start" x="837.483" y="-593.7" font-family="Times,serif" font-size="14.00">createItems</text>
<text text-anchor="start" x="837.483" y="-576.9" font-family="Times,serif" font-size="14.00">createRecipes</text>
<text text-anchor="start" x="837.483" y="-560.1" font-family="Times,serif" font-size="14.00">createReviews</text>
<text text-anchor="start" x="837.483" y="-543.3" font-family="Times,serif" font-size="14.00">deleteItems</text>
<text text-anchor="start" x="837.483" y="-526.5" font-family="Times,serif" font-size="14.00">deleteRecipes</text>
<text text-anchor="start" x="837.483" y="-509.7" font-family="Times,serif" font-size="14.00">deleteReviews</text>
<text text-anchor="start" x="837.483" y="-492.9" font-family="Times,serif" font-size="14.00">destroyItems</text>
<text text-anchor="start" x="837.483" y="-476.1" font-family="Times,serif" font-size="14.00">destroyRecipes</text>
<text text-anchor="start" x="837.483" y="-459.3" font-family="Times,serif" font-size="14.00">destroyReviews</text>
<text text-anchor="start" x="837.483" y="-442.5" font-family="Times,serif" font-size="14.00">editItems</text>
<text text-anchor="start" x="837.483" y="-425.7" font-family="Times,serif" font-size="14.00">editMember</text>
<text text-anchor="start" x="837.483" y="-408.9" font-family="Times,serif" font-size="14.00">editRecipes</text>
<text text-anchor="start" x="837.483" y="-392.1" font-family="Times,serif" font-size="14.00">editReviews</text>
<text text-anchor="start" x="837.483" y="-375.3" font-family="Times,serif" font-size="14.00">eventDetails</text>
<text text-anchor="start" x="837.483" y="-358.5" font-family="Times,serif" font-size="14.00">index</text>
<text text-anchor="start" x="837.483" y="-341.7" font-family="Times,serif" font-size="14.00">listContactInfo</text>
<text text-anchor="start" x="837.483" y="-324.9" font-family="Times,serif" font-size="14.00">listEvents</text>
<text text-anchor="start" x="837.483" y="-308.1" font-family="Times,serif" font-size="14.00">listItems</text>
<text text-anchor="start" x="837.483" y="-291.3" font-family="Times,serif" font-size="14.00">listProducts</text>
<text text-anchor="start" x="837.483" y="-274.5" font-family="Times,serif" font-size="14.00">listRecipes</text>
<text text-anchor="start" x="837.483" y="-257.7" font-family="Times,serif" font-size="14.00">listReviews</text>
<text text-anchor="start" x="837.483" y="-240.9" font-family="Times,serif" font-size="14.00">logout</text>
<text text-anchor="start" x="837.483" y="-224.1" font-family="Times,serif" font-size="14.00">memberresponsehandler</text>
<text text-anchor="start" x="837.483" y="-207.3" font-family="Times,serif" font-size="14.00">newItems</text>
<text text-anchor="start" x="837.483" y="-190.5" font-family="Times,serif" font-size="14.00">newRecipes</text>
<text text-anchor="start" x="837.483" y="-173.7" font-family="Times,serif" font-size="14.00">newReviews</text>
<text text-anchor="start" x="837.483" y="-156.9" font-family="Times,serif" font-size="14.00">showAccountInfo</text>
<text text-anchor="start" x="837.483" y="-140.1" font-family="Times,serif" font-size="14.00">updateItems</text>
<text text-anchor="start" x="837.483" y="-123.3" font-family="Times,serif" font-size="14.00">updateMember</text>
<text text-anchor="start" x="837.483" y="-106.5" font-family="Times,serif" font-size="14.00">updateRecipes</text>
<text text-anchor="start" x="837.483" y="-89.7" font-family="Times,serif" font-size="14.00">updateReviews</text>
<polyline fill="none" stroke="black" points="829.483,-82.9 1039.12,-82.9 "/>
<polyline fill="none" stroke="black" points="829.483,-58.9 1039.12,-58.9 "/>
<text text-anchor="start" x="837.483" y="-40.9" font-family="Times,serif" font-size="14.00">_layout</text>
<text text-anchor="start" x="837.483" y="-24.1" font-family="Times,serif" font-size="14.00">find_event</text>
<text text-anchor="start" x="837.483" y="-7.3" font-family="Times,serif" font-size="14.00">find_product</text>
</g>
<!-- ApplicationController&#45;&gt;MemberController -->
<g id="edge9" class="edge"><title>ApplicationController&#45;&gt;MemberController</title>
<path fill="none" stroke="black" d="M600.402,-1202.34C645.531,-1086.29 749.43,-819.105 829.435,-613.367"/>
</g>
<!-- PasswordResetsController -->
<g id="node12" class="node"><title>PasswordResetsController</title>
<path fill="none" stroke="black" d="M528.675,-759.628C528.675,-759.628 668.441,-759.628 668.441,-759.628 674.441,-759.628 680.441,-765.628 680.441,-771.628 680.441,-771.628 680.441,-896.428 680.441,-896.428 680.441,-902.428 674.441,-908.428 668.441,-908.428 668.441,-908.428 528.675,-908.428 528.675,-908.428 522.675,-908.428 516.675,-902.428 516.675,-896.428 516.675,-896.428 516.675,-771.628 516.675,-771.628 516.675,-765.628 522.675,-759.628 528.675,-759.628"/>
<text text-anchor="middle" x="598.558" y="-890.428" font-family="Times,serif" font-size="14.00">PasswordResetsController</text>
<polyline fill="none" stroke="black" points="516.675,-883.628 680.441,-883.628 "/>
<text text-anchor="start" x="524.675" y="-865.628" font-family="Times,serif" font-size="14.00">create</text>
<text text-anchor="start" x="524.675" y="-848.828" font-family="Times,serif" font-size="14.00">edit</text>
<text text-anchor="start" x="524.675" y="-832.028" font-family="Times,serif" font-size="14.00">new</text>
<text text-anchor="start" x="524.675" y="-815.228" font-family="Times,serif" font-size="14.00">update</text>
<polyline fill="none" stroke="black" points="516.675,-808.428 680.441,-808.428 "/>
<polyline fill="none" stroke="black" points="516.675,-784.428 680.441,-784.428 "/>
<text text-anchor="start" x="524.675" y="-766.428" font-family="Times,serif" font-size="14.00">_layout</text>
</g>
<!-- ApplicationController&#45;&gt;PasswordResetsController -->
<g id="edge10" class="edge"><title>ApplicationController&#45;&gt;PasswordResetsController</title>
<path fill="none" stroke="black" d="M580.671,-1201.99C584.38,-1125.7 590.877,-992.039 594.936,-908.531"/>
</g>
<!-- ProductsController -->
<g id="node13" class="node"><title>ProductsController</title>
<path fill="none" stroke="black" d="M12,-1471.48C12,-1471.48 197.635,-1471.48 197.635,-1471.48 203.635,-1471.48 209.635,-1477.48 209.635,-1483.48 209.635,-1483.48 209.635,-1692.28 209.635,-1692.28 209.635,-1698.28 203.635,-1704.28 197.635,-1704.28 197.635,-1704.28 12,-1704.28 12,-1704.28 6,-1704.28 1.13687e-13,-1698.28 1.13687e-13,-1692.28 1.13687e-13,-1692.28 1.13687e-13,-1483.48 1.13687e-13,-1483.48 1.13687e-13,-1477.48 6,-1471.48 12,-1471.48"/>
<text text-anchor="middle" x="104.817" y="-1686.28" font-family="Times,serif" font-size="14.00">ProductsController</text>
<polyline fill="none" stroke="black" points="1.13687e-13,-1679.48 209.635,-1679.48 "/>
<text text-anchor="start" x="8" y="-1661.48" font-family="Times,serif" font-size="14.00">_one_time_conditions_valid_216?</text>
<text text-anchor="start" x="8" y="-1644.68" font-family="Times,serif" font-size="14.00">create</text>
<text text-anchor="start" x="8" y="-1627.88" font-family="Times,serif" font-size="14.00">delete</text>
<text text-anchor="start" x="8" y="-1611.08" font-family="Times,serif" font-size="14.00">destroy</text>
<text text-anchor="start" x="8" y="-1594.28" font-family="Times,serif" font-size="14.00">edit</text>
<text text-anchor="start" x="8" y="-1577.48" font-family="Times,serif" font-size="14.00">index</text>
<text text-anchor="start" x="8" y="-1560.68" font-family="Times,serif" font-size="14.00">list</text>
<text text-anchor="start" x="8" y="-1543.88" font-family="Times,serif" font-size="14.00">new</text>
<text text-anchor="start" x="8" y="-1527.08" font-family="Times,serif" font-size="14.00">update</text>
<polyline fill="none" stroke="black" points="1.13687e-13,-1520.28 209.635,-1520.28 "/>
<polyline fill="none" stroke="black" points="1.13687e-13,-1496.28 209.635,-1496.28 "/>
<text text-anchor="start" x="8" y="-1478.28" font-family="Times,serif" font-size="14.00">_layout</text>
</g>
<!-- ApplicationController&#45;&gt;ProductsController -->
<g id="edge11" class="edge"><title>ApplicationController&#45;&gt;ProductsController</title>
<path fill="none" stroke="black" d="M493.812,-1318.55C414.567,-1373.42 295.504,-1455.85 209.987,-1515.06"/>
</g>
<!-- PublicController -->
<g id="node14" class="node"><title>PublicController</title>
<path fill="none" stroke="black" d="M1003.92,-1407.8C1003.92,-1407.8 1189.55,-1407.8 1189.55,-1407.8 1195.55,-1407.8 1201.55,-1413.8 1201.55,-1419.8 1201.55,-1419.8 1201.55,-1779.8 1201.55,-1779.8 1201.55,-1785.8 1195.55,-1791.8 1189.55,-1791.8 1189.55,-1791.8 1003.92,-1791.8 1003.92,-1791.8 997.915,-1791.8 991.915,-1785.8 991.915,-1779.8 991.915,-1779.8 991.915,-1419.8 991.915,-1419.8 991.915,-1413.8 997.915,-1407.8 1003.92,-1407.8"/>
<text text-anchor="middle" x="1096.73" y="-1773.8" font-family="Times,serif" font-size="14.00">PublicController</text>
<polyline fill="none" stroke="black" points="991.915,-1767 1201.55,-1767 "/>
<text text-anchor="start" x="999.915" y="-1749" font-family="Times,serif" font-size="14.00">_one_time_conditions_valid_220?</text>
<text text-anchor="start" x="999.915" y="-1732.2" font-family="Times,serif" font-size="14.00">attempt_login</text>
<text text-anchor="start" x="999.915" y="-1715.4" font-family="Times,serif" font-size="14.00">createMember</text>
<text text-anchor="start" x="999.915" y="-1698.6" font-family="Times,serif" font-size="14.00">index</text>
<text text-anchor="start" x="999.915" y="-1681.8" font-family="Times,serif" font-size="14.00">listContacts</text>
<text text-anchor="start" x="999.915" y="-1665" font-family="Times,serif" font-size="14.00">listItems</text>
<text text-anchor="start" x="999.915" y="-1648.2" font-family="Times,serif" font-size="14.00">listProducts</text>
<text text-anchor="start" x="999.915" y="-1631.4" font-family="Times,serif" font-size="14.00">listRecipes</text>
<text text-anchor="start" x="999.915" y="-1614.6" font-family="Times,serif" font-size="14.00">listReviews</text>
<text text-anchor="start" x="999.915" y="-1597.8" font-family="Times,serif" font-size="14.00">login</text>
<text text-anchor="start" x="999.915" y="-1581" font-family="Times,serif" font-size="14.00">newMember</text>
<text text-anchor="start" x="999.915" y="-1564.2" font-family="Times,serif" font-size="14.00">searchItems</text>
<text text-anchor="start" x="999.915" y="-1547.4" font-family="Times,serif" font-size="14.00">searchRecipes</text>
<text text-anchor="start" x="999.915" y="-1530.6" font-family="Times,serif" font-size="14.00">searchReviews</text>
<text text-anchor="start" x="999.915" y="-1513.8" font-family="Times,serif" font-size="14.00">sendemailToAdmin</text>
<text text-anchor="start" x="999.915" y="-1497" font-family="Times,serif" font-size="14.00">sendemailToMember</text>
<text text-anchor="start" x="999.915" y="-1480.2" font-family="Times,serif" font-size="14.00">showMember</text>
<polyline fill="none" stroke="black" points="991.915,-1473.4 1201.55,-1473.4 "/>
<polyline fill="none" stroke="black" points="991.915,-1449.4 1201.55,-1449.4 "/>
<text text-anchor="start" x="999.915" y="-1431.4" font-family="Times,serif" font-size="14.00">_layout</text>
<text text-anchor="start" x="999.915" y="-1414.6" font-family="Times,serif" font-size="14.00">find_product</text>
</g>
<!-- ApplicationController&#45;&gt;PublicController -->
<g id="edge12" class="edge"><title>ApplicationController&#45;&gt;PublicController</title>
<path fill="none" stroke="black" d="M666.74,-1318.53C756.81,-1377.45 896.11,-1468.57 991.6,-1531.03"/>
</g>
<!-- RecipesController -->
<g id="node15" class="node"><title>RecipesController</title>
<path fill="none" stroke="black" d="M951.334,-2037.38C951.334,-2037.38 1136.97,-2037.38 1136.97,-2037.38 1142.97,-2037.38 1148.97,-2043.38 1148.97,-2049.38 1148.97,-2049.38 1148.97,-2241.38 1148.97,-2241.38 1148.97,-2247.38 1142.97,-2253.38 1136.97,-2253.38 1136.97,-2253.38 951.334,-2253.38 951.334,-2253.38 945.334,-2253.38 939.334,-2247.38 939.334,-2241.38 939.334,-2241.38 939.334,-2049.38 939.334,-2049.38 939.334,-2043.38 945.334,-2037.38 951.334,-2037.38"/>
<text text-anchor="middle" x="1044.15" y="-2235.38" font-family="Times,serif" font-size="14.00">RecipesController</text>
<polyline fill="none" stroke="black" points="939.334,-2228.58 1148.97,-2228.58 "/>
<text text-anchor="start" x="947.334" y="-2210.58" font-family="Times,serif" font-size="14.00">_one_time_conditions_valid_242?</text>
<text text-anchor="start" x="947.334" y="-2193.78" font-family="Times,serif" font-size="14.00">create</text>
<text text-anchor="start" x="947.334" y="-2176.98" font-family="Times,serif" font-size="14.00">destroy</text>
<text text-anchor="start" x="947.334" y="-2160.18" font-family="Times,serif" font-size="14.00">edit</text>
<text text-anchor="start" x="947.334" y="-2143.38" font-family="Times,serif" font-size="14.00">index</text>
<text text-anchor="start" x="947.334" y="-2126.58" font-family="Times,serif" font-size="14.00">new</text>
<text text-anchor="start" x="947.334" y="-2109.78" font-family="Times,serif" font-size="14.00">show</text>
<text text-anchor="start" x="947.334" y="-2092.98" font-family="Times,serif" font-size="14.00">update</text>
<polyline fill="none" stroke="black" points="939.334,-2086.18 1148.97,-2086.18 "/>
<polyline fill="none" stroke="black" points="939.334,-2062.18 1148.97,-2062.18 "/>
<text text-anchor="start" x="947.334" y="-2044.18" font-family="Times,serif" font-size="14.00">_layout</text>
</g>
<!-- ApplicationController&#45;&gt;RecipesController -->
<g id="edge13" class="edge"><title>ApplicationController&#45;&gt;RecipesController</title>
<path fill="none" stroke="black" d="M664.409,-1318.41C726.818,-1364.48 808.537,-1434.2 858.49,-1513.65 962.453,-1679.02 1010.35,-1905.08 1030.7,-2037.14"/>
</g>
<!-- ReviewsController -->
<g id="node16" class="node"><title>ReviewsController</title>
<path fill="none" stroke="black" d="M507.622,-2050.91C507.622,-2050.91 693.257,-2050.91 693.257,-2050.91 699.257,-2050.91 705.257,-2056.91 705.257,-2062.91 705.257,-2062.91 705.257,-2305.31 705.257,-2305.31 705.257,-2311.31 699.257,-2317.31 693.257,-2317.31 693.257,-2317.31 507.622,-2317.31 507.622,-2317.31 501.622,-2317.31 495.622,-2311.31 495.622,-2305.31 495.622,-2305.31 495.622,-2062.91 495.622,-2062.91 495.622,-2056.91 501.622,-2050.91 507.622,-2050.91"/>
<text text-anchor="middle" x="600.44" y="-2299.31" font-family="Times,serif" font-size="14.00">ReviewsController</text>
<polyline fill="none" stroke="black" points="495.622,-2292.51 705.257,-2292.51 "/>
<text text-anchor="start" x="503.622" y="-2274.51" font-family="Times,serif" font-size="14.00">_one_time_conditions_valid_266?</text>
<text text-anchor="start" x="503.622" y="-2257.71" font-family="Times,serif" font-size="14.00">_one_time_conditions_valid_270?</text>
<text text-anchor="start" x="503.622" y="-2240.91" font-family="Times,serif" font-size="14.00">createReviews</text>
<text text-anchor="start" x="503.622" y="-2224.11" font-family="Times,serif" font-size="14.00">delete</text>
<text text-anchor="start" x="503.622" y="-2207.31" font-family="Times,serif" font-size="14.00">destroy</text>
<text text-anchor="start" x="503.622" y="-2190.51" font-family="Times,serif" font-size="14.00">edit</text>
<text text-anchor="start" x="503.622" y="-2173.71" font-family="Times,serif" font-size="14.00">index</text>
<text text-anchor="start" x="503.622" y="-2156.91" font-family="Times,serif" font-size="14.00">list</text>
<text text-anchor="start" x="503.622" y="-2140.11" font-family="Times,serif" font-size="14.00">newReviews</text>
<text text-anchor="start" x="503.622" y="-2123.31" font-family="Times,serif" font-size="14.00">update</text>
<polyline fill="none" stroke="black" points="495.622,-2116.51 705.257,-2116.51 "/>
<polyline fill="none" stroke="black" points="495.622,-2092.51 705.257,-2092.51 "/>
<text text-anchor="start" x="503.622" y="-2074.51" font-family="Times,serif" font-size="14.00">_layout</text>
<text text-anchor="start" x="503.622" y="-2057.71" font-family="Times,serif" font-size="14.00">find_product</text>
</g>
<!-- ApplicationController&#45;&gt;ReviewsController -->
<g id="edge14" class="edge"><title>ApplicationController&#45;&gt;ReviewsController</title>
<path fill="none" stroke="black" d="M579.256,-1318.51C582.813,-1463.86 592.166,-1846.04 597.17,-2050.52"/>
</g>
</g>
</svg>
