<?xml version="1.0" encoding="UTF-8" standalone="no"?>
<!DOCTYPE svg PUBLIC "-//W3C//DTD SVG 1.1//EN"
 "http://www.w3.org/Graphics/SVG/1.1/DTD/svg11.dtd">
<!-- Generated by graphviz version 2.30.1 (20140127.2004)
 -->
<!-- Title: models_diagram Pages: 1 -->
<svg width="783pt" height="238pt"
 viewBox="0.00 0.00 783.49 238.00" xmlns="http://www.w3.org/2000/svg" xmlns:xlink="http://www.w3.org/1999/xlink">
<g id="graph0" class="graph" transform="scale(1 1) rotate(0) translate(4 234)">
<title>models_diagram</title>
<polygon fill="white" stroke="white" points="-4,5 -4,-234 780.493,-234 780.493,5 -4,5"/>
<!-- _diagram_info -->
<g id="node1" class="node"><title>_diagram_info</title>
<text text-anchor="start" x="99.3123" y="-213" font-family="Times,serif" font-size="13.00">Models diagram</text>
<text text-anchor="start" x="99.3123" y="-197.4" font-family="Times,serif" font-size="13.00">Date: Feb 25 2014 &#45; 11:34</text>
<text text-anchor="start" x="99.3123" y="-181.8" font-family="Times,serif" font-size="13.00">Migration version: 20140218224149</text>
<text text-anchor="start" x="99.3123" y="-166.2" font-family="Times,serif" font-size="13.00">Generated by RailRoady 1.1.1</text>
<text text-anchor="start" x="99.3123" y="-150.6" font-family="Times,serif" font-size="13.00">http://railroady.prestonlee.com</text>
</g>
<!-- Admin -->
<g id="node2" class="node"><title>Admin</title>
<ellipse fill="none" stroke="black" cx="37" cy="-90" rx="37.2949" ry="18"/>
<text text-anchor="middle" x="37" y="-84.4" font-family="Times,serif" font-size="14.00">Admin</text>
</g>
<!-- Contact -->
<g id="node3" class="node"><title>Contact</title>
<ellipse fill="none" stroke="black" cx="134" cy="-90" rx="41.1096" ry="18"/>
<text text-anchor="middle" x="134" y="-84.4" font-family="Times,serif" font-size="14.00">Contact</text>
</g>
<!-- Event -->
<g id="node4" class="node"><title>Event</title>
<ellipse fill="none" stroke="black" cx="227" cy="-90" rx="33.3419" ry="18"/>
<text text-anchor="middle" x="227" y="-84.4" font-family="Times,serif" font-size="14.00">Event</text>
</g>
<!-- Invitee -->
<g id="node6" class="node"><title>Invitee</title>
<ellipse fill="none" stroke="black" cx="301" cy="-18" rx="37.2739" ry="18"/>
<text text-anchor="middle" x="301" y="-12.4" font-family="Times,serif" font-size="14.00">Invitee</text>
</g>
<!-- Event&#45;&gt;Invitee -->
<g id="edge3" class="edge"><title>Event&#45;&gt;Invitee</title>
<path fill="none" stroke="#b9bace" d="M249.139,-68.0578C258.07,-59.6099 268.385,-49.8517 277.453,-41.274"/>
<ellipse fill="none" stroke="#b9bace" cx="245.963" cy="-71.0622" rx="4.00002" ry="4.00002"/>
<polygon fill="#b9bace" stroke="#b9bace" points="277.454,-41.2731 287.811,-37.6702 281.087,-37.8371 284.719,-34.401 284.719,-34.401 284.719,-34.401 281.087,-37.8371 281.626,-31.1319 277.454,-41.2731 277.454,-41.2731"/>
</g>
<!-- Home -->
<g id="node5" class="node"><title>Home</title>
<ellipse fill="none" stroke="black" cx="313" cy="-90" rx="34.4542" ry="18"/>
<text text-anchor="middle" x="313" y="-84.4" font-family="Times,serif" font-size="14.00">Home</text>
</g>
<!-- Item -->
<g id="node7" class="node"><title>Item</title>
<ellipse fill="none" stroke="black" cx="433" cy="-90" rx="28.5985" ry="18"/>
<text text-anchor="middle" x="433" y="-84.4" font-family="Times,serif" font-size="14.00">Item</text>
</g>
<!-- Member -->
<g id="node8" class="node"><title>Member</title>
<ellipse fill="none" stroke="black" cx="523" cy="-90" rx="43.1305" ry="18"/>
<text text-anchor="middle" x="523" y="-84.4" font-family="Times,serif" font-size="14.00">Member</text>
</g>
<!-- Product -->
<g id="node9" class="node"><title>Product</title>
<ellipse fill="none" stroke="black" cx="626" cy="-90" rx="41.1166" ry="18"/>
<text text-anchor="middle" x="626" y="-84.4" font-family="Times,serif" font-size="14.00">Product</text>
</g>
<!-- Review -->
<g id="node11" class="node"><title>Review</title>
<ellipse fill="none" stroke="black" cx="707" cy="-18" rx="40.303" ry="18"/>
<text text-anchor="middle" x="707" y="-12.4" font-family="Times,serif" font-size="14.00">Review</text>
</g>
<!-- Product&#45;&gt;Review -->
<g id="edge9" class="edge"><title>Product&#45;&gt;Review</title>
<path fill="none" stroke="#6a079e" d="M650.288,-68.0108C660.202,-59.4427 671.669,-49.5328 681.687,-40.8757"/>
<ellipse fill="none" stroke="#6a079e" cx="647.003" cy="-70.8493" rx="4.00002" ry="4.00002"/>
<polygon fill="#6a079e" stroke="#6a079e" points="681.786,-40.7897 692.295,-37.6558 685.569,-37.5203 689.352,-34.251 689.352,-34.251 689.352,-34.251 685.569,-37.5203 686.41,-30.8462 681.786,-40.7897 681.786,-40.7897"/>
</g>
<!-- Recipe -->
<g id="node10" class="node"><title>Recipe</title>
<ellipse fill="none" stroke="black" cx="723" cy="-90" rx="37.2739" ry="18"/>
<text text-anchor="middle" x="723" y="-84.4" font-family="Times,serif" font-size="14.00">Recipe</text>
</g>
<!-- ActiveRecord::Base -->
<g id="node12" class="node"><title>ActiveRecord::Base</title>
<ellipse fill="none" stroke="black" cx="405" cy="-187" rx="88.2033" ry="18"/>
<text text-anchor="middle" x="405" y="-181.4" font-family="Times,serif" font-size="14.00">ActiveRecord::Base</text>
</g>
<!-- ActiveRecord::Base&#45;&gt;Admin -->
<g id="edge1" class="edge"><title>ActiveRecord::Base&#45;&gt;Admin</title>
<path fill="none" stroke="black" d="M373.506,-170.16C354.637,-161.268 329.932,-150.656 307,-144 210.584,-116.017 181.184,-133.184 84,-108 77.7843,-106.389 71.2348,-104.289 65.064,-102.117"/>
</g>
<!-- ActiveRecord::Base&#45;&gt;Contact -->
<g id="edge2" class="edge"><title>ActiveRecord::Base&#45;&gt;Contact</title>
<path fill="none" stroke="black" d="M370.934,-170.204C352.27,-161.855 328.602,-151.759 307,-144 253.393,-124.746 238.31,-125.172 184,-108 177.881,-106.065 171.369,-103.917 165.138,-101.818"/>
</g>
<!-- ActiveRecord::Base&#45;&gt;Event -->
<g id="edge4" class="edge"><title>ActiveRecord::Base&#45;&gt;Event</title>
<path fill="none" stroke="black" d="M374.805,-169.885C339.494,-151.039 281.83,-120.263 249.968,-103.258"/>
</g>
<!-- ActiveRecord::Base&#45;&gt;Home -->
<g id="edge5" class="edge"><title>ActiveRecord::Base&#45;&gt;Home</title>
<path fill="none" stroke="black" d="M388.552,-169.016C371.29,-151.19 344.398,-123.422 327.786,-106.268"/>
</g>
<!-- ActiveRecord::Base&#45;&gt;Invitee -->
<g id="edge6" class="edge"><title>ActiveRecord::Base&#45;&gt;Invitee</title>
<path fill="none" stroke="black" d="M399.952,-168.696C392.637,-145.374 377.562,-103.186 356,-72 345.895,-57.3842 331.299,-43.548 319.683,-33.6798"/>
</g>
<!-- ActiveRecord::Base&#45;&gt;Item -->
<g id="edge7" class="edge"><title>ActiveRecord::Base&#45;&gt;Item</title>
<path fill="none" stroke="black" d="M410.006,-169.016C415.102,-151.724 422.957,-125.076 428.037,-107.837"/>
</g>
<!-- ActiveRecord::Base&#45;&gt;Member -->
<g id="edge8" class="edge"><title>ActiveRecord::Base&#45;&gt;Member</title>
<path fill="none" stroke="black" d="M425.554,-169.452C447.608,-151.697 482.357,-123.721 503.853,-106.415"/>
</g>
<!-- ActiveRecord::Base&#45;&gt;Product -->
<g id="edge10" class="edge"><title>ActiveRecord::Base&#45;&gt;Product</title>
<path fill="none" stroke="black" d="M440.999,-170.525C484.786,-151.703 557.788,-120.322 597.742,-103.147"/>
</g>
<!-- ActiveRecord::Base&#45;&gt;Recipe -->
<g id="edge11" class="edge"><title>ActiveRecord::Base&#45;&gt;Recipe</title>
<path fill="none" stroke="black" d="M456.507,-172.277C511.254,-157.435 600.207,-132.584 676,-108 681.943,-106.072 688.26,-103.884 694.272,-101.735"/>
</g>
<!-- ActiveRecord::Base&#45;&gt;Review -->
<g id="edge12" class="edge"><title>ActiveRecord::Base&#45;&gt;Review</title>
<path fill="none" stroke="black" d="M486.828,-180.164C583.08,-171.398 734.21,-151.035 769,-108 779.059,-95.5573 775.695,-86.5318 769,-72 761.237,-55.1517 745.184,-41.6682 731.358,-32.5177"/>
</g>
</g>
</svg>
