<?xml version="1.0" encoding="UTF-8" standalone="no"?>
<!DOCTYPE svg PUBLIC "-//W3C//DTD SVG 1.1//EN"
 "http://www.w3.org/Graphics/SVG/1.1/DTD/svg11.dtd">
<!-- Generated by graphviz version 2.30.1 (20140127.2004)
 -->
<!-- Title: models_diagram Pages: 1 -->
<svg width="1142pt" height="976pt"
 viewBox="0.00 0.00 1141.66 976.00" xmlns="http://www.w3.org/2000/svg" xmlns:xlink="http://www.w3.org/1999/xlink">
<g id="graph0" class="graph" transform="scale(1 1) rotate(0) translate(4 972)">
<title>models_diagram</title>
<polygon fill="white" stroke="white" points="-4,5 -4,-972 1138.66,-972 1138.66,5 -4,5"/>
<!-- _diagram_info -->
<g id="node1" class="node"><title>_diagram_info</title>
<text text-anchor="start" x="214.968" y="-951" font-family="Times,serif" font-size="13.00">Models diagram</text>
<text text-anchor="start" x="214.968" y="-935.4" font-family="Times,serif" font-size="13.00">Date: Jan 27 2014 &#45; 12:38</text>
<text text-anchor="start" x="214.968" y="-919.8" font-family="Times,serif" font-size="13.00">Migration version: 20140126061904</text>
<text text-anchor="start" x="214.968" y="-904.2" font-family="Times,serif" font-size="13.00">Generated by RailRoady 1.1.1</text>
<text text-anchor="start" x="214.968" y="-888.6" font-family="Times,serif" font-size="13.00">http://railroady.prestonlee.com</text>
</g>
<!-- Admin -->
<g id="node2" class="node"><title>Admin</title>
<path fill="none" stroke="black" d="M94.6368,-611C94.6368,-611 224.675,-611 224.675,-611 230.675,-611 236.675,-617 236.675,-623 236.675,-623 236.675,-783 236.675,-783 236.675,-789 230.675,-795 224.675,-795 224.675,-795 94.6368,-795 94.6368,-795 88.6368,-795 82.6368,-789 82.6368,-783 82.6368,-783 82.6368,-623 82.6368,-623 82.6368,-617 88.6368,-611 94.6368,-611"/>
<text text-anchor="middle" x="159.656" y="-777" font-family="Times,serif" font-size="14.00">Admin</text>
<polyline fill="none" stroke="black" points="82.6368,-770.2 236.675,-770.2 "/>
<text text-anchor="start" x="90.6368" y="-752.2" font-family="Times,serif" font-size="14.00">id :integer</text>
<text text-anchor="start" x="90.6368" y="-735.4" font-family="Times,serif" font-size="14.00">first_name :string</text>
<text text-anchor="start" x="90.6368" y="-718.6" font-family="Times,serif" font-size="14.00">last_name :string</text>
<text text-anchor="start" x="90.6368" y="-701.8" font-family="Times,serif" font-size="14.00">username :string</text>
<text text-anchor="start" x="90.6368" y="-685" font-family="Times,serif" font-size="14.00">emailId :string</text>
<text text-anchor="start" x="90.6368" y="-668.2" font-family="Times,serif" font-size="14.00">hashed_password :string</text>
<text text-anchor="start" x="90.6368" y="-651.4" font-family="Times,serif" font-size="14.00">salt :string</text>
<text text-anchor="start" x="90.6368" y="-634.6" font-family="Times,serif" font-size="14.00">created_at :datetime</text>
<text text-anchor="start" x="90.6368" y="-617.8" font-family="Times,serif" font-size="14.00">updated_at :datetime</text>
</g>
<!-- Event -->
<g id="node4" class="node"><title>Event</title>
<path fill="none" stroke="black" d="M56.5469,-272.4C56.5469,-272.4 234.765,-272.4 234.765,-272.4 240.765,-272.4 246.765,-278.4 246.765,-284.4 246.765,-284.4 246.765,-511.6 246.765,-511.6 246.765,-517.6 240.765,-523.6 234.765,-523.6 234.765,-523.6 56.5469,-523.6 56.5469,-523.6 50.5469,-523.6 44.5469,-517.6 44.5469,-511.6 44.5469,-511.6 44.5469,-284.4 44.5469,-284.4 44.5469,-278.4 50.5469,-272.4 56.5469,-272.4"/>
<text text-anchor="middle" x="145.656" y="-505.6" font-family="Times,serif" font-size="14.00">Event</text>
<polyline fill="none" stroke="black" points="44.5469,-498.8 246.765,-498.8 "/>
<text text-anchor="start" x="52.5469" y="-480.8" font-family="Times,serif" font-size="14.00">id :integer</text>
<text text-anchor="start" x="52.5469" y="-464" font-family="Times,serif" font-size="14.00">name :string</text>
<text text-anchor="start" x="52.5469" y="-447.2" font-family="Times,serif" font-size="14.00">datetime :datetime</text>
<text text-anchor="start" x="52.5469" y="-430.4" font-family="Times,serif" font-size="14.00">duration :string</text>
<text text-anchor="start" x="52.5469" y="-413.6" font-family="Times,serif" font-size="14.00">address :string</text>
<text text-anchor="start" x="52.5469" y="-396.8" font-family="Times,serif" font-size="14.00">description :text</text>
<text text-anchor="start" x="52.5469" y="-380" font-family="Times,serif" font-size="14.00">admin_username :string</text>
<text text-anchor="start" x="52.5469" y="-363.2" font-family="Times,serif" font-size="14.00">created_at :datetime</text>
<text text-anchor="start" x="52.5469" y="-346.4" font-family="Times,serif" font-size="14.00">updated_at :datetime</text>
<text text-anchor="start" x="52.5469" y="-329.6" font-family="Times,serif" font-size="14.00">eventphoto_file_name :string</text>
<text text-anchor="start" x="52.5469" y="-312.8" font-family="Times,serif" font-size="14.00">eventphoto_content_type :string</text>
<text text-anchor="start" x="52.5469" y="-296" font-family="Times,serif" font-size="14.00">eventphoto_file_size :integer</text>
<text text-anchor="start" x="52.5469" y="-279.2" font-family="Times,serif" font-size="14.00">eventphoto_updated_at :datetime</text>
</g>
<!-- Admin&#45;&gt;Event -->
<g id="edge1" class="edge"><title>Admin&#45;&gt;Event</title>
<path fill="none" stroke="#08c802" d="M155.062,-602.579C154.048,-580.629 152.957,-557.019 151.89,-533.928"/>
<ellipse fill="none" stroke="#08c802" cx="155.252" cy="-606.683" rx="4" ry="4"/>
<polygon fill="#08c802" stroke="#08c802" points="151.88,-533.708 155.914,-523.511 151.649,-528.713 151.418,-523.718 151.418,-523.718 151.418,-523.718 151.649,-528.713 146.923,-523.926 151.88,-533.708 151.88,-533.708"/>
</g>
<!-- Contact -->
<g id="node3" class="node"><title>Contact</title>
<path fill="none" stroke="black" d="M267.15,-636.2C267.15,-636.2 376.161,-636.2 376.161,-636.2 382.161,-636.2 388.161,-642.2 388.161,-648.2 388.161,-648.2 388.161,-757.8 388.161,-757.8 388.161,-763.8 382.161,-769.8 376.161,-769.8 376.161,-769.8 267.15,-769.8 267.15,-769.8 261.15,-769.8 255.15,-763.8 255.15,-757.8 255.15,-757.8 255.15,-648.2 255.15,-648.2 255.15,-642.2 261.15,-636.2 267.15,-636.2"/>
<text text-anchor="middle" x="321.656" y="-751.8" font-family="Times,serif" font-size="14.00">Contact</text>
<polyline fill="none" stroke="black" points="255.15,-745 388.161,-745 "/>
<text text-anchor="start" x="263.15" y="-727" font-family="Times,serif" font-size="14.00">id :integer</text>
<text text-anchor="start" x="263.15" y="-710.2" font-family="Times,serif" font-size="14.00">name :string</text>
<text text-anchor="start" x="263.15" y="-693.4" font-family="Times,serif" font-size="14.00">emailid :string</text>
<text text-anchor="start" x="263.15" y="-676.6" font-family="Times,serif" font-size="14.00">facebook :string</text>
<text text-anchor="start" x="263.15" y="-659.8" font-family="Times,serif" font-size="14.00">created_at :datetime</text>
<text text-anchor="start" x="263.15" y="-643" font-family="Times,serif" font-size="14.00">updated_at :datetime</text>
</g>
<!-- Invitee -->
<g id="node6" class="node"><title>Invitee</title>
<path fill="none" stroke="black" d="M26.1504,-0.8C26.1504,-0.8 135.161,-0.8 135.161,-0.8 141.161,-0.8 147.161,-6.8 147.161,-12.8 147.161,-12.8 147.161,-223.2 147.161,-223.2 147.161,-229.2 141.161,-235.2 135.161,-235.2 135.161,-235.2 26.1504,-235.2 26.1504,-235.2 20.1504,-235.2 14.1504,-229.2 14.1504,-223.2 14.1504,-223.2 14.1504,-12.8 14.1504,-12.8 14.1504,-6.8 20.1504,-0.8 26.1504,-0.8"/>
<text text-anchor="middle" x="80.6558" y="-217.2" font-family="Times,serif" font-size="14.00">Invitee</text>
<polyline fill="none" stroke="black" points="14.1504,-210.4 147.161,-210.4 "/>
<text text-anchor="start" x="22.1504" y="-192.4" font-family="Times,serif" font-size="14.00">id :integer</text>
<text text-anchor="start" x="22.1504" y="-175.6" font-family="Times,serif" font-size="14.00">email :string</text>
<text text-anchor="start" x="22.1504" y="-158.8" font-family="Times,serif" font-size="14.00">event_id :integer</text>
<text text-anchor="start" x="22.1504" y="-142" font-family="Times,serif" font-size="14.00">firstname :string</text>
<text text-anchor="start" x="22.1504" y="-125.2" font-family="Times,serif" font-size="14.00">invited :boolean</text>
<text text-anchor="start" x="22.1504" y="-108.4" font-family="Times,serif" font-size="14.00">responded :boolean</text>
<text text-anchor="start" x="22.1504" y="-91.6" font-family="Times,serif" font-size="14.00">response :string</text>
<text text-anchor="start" x="22.1504" y="-74.8" font-family="Times,serif" font-size="14.00">adults :integer</text>
<text text-anchor="start" x="22.1504" y="-58" font-family="Times,serif" font-size="14.00">kids :integer</text>
<text text-anchor="start" x="22.1504" y="-41.2" font-family="Times,serif" font-size="14.00">message :text</text>
<text text-anchor="start" x="22.1504" y="-24.4" font-family="Times,serif" font-size="14.00">created_at :datetime</text>
<text text-anchor="start" x="22.1504" y="-7.6" font-family="Times,serif" font-size="14.00">updated_at :datetime</text>
</g>
<!-- Event&#45;&gt;Invitee -->
<g id="edge4" class="edge"><title>Event&#45;&gt;Invitee</title>
<path fill="none" stroke="#7c31ca" d="M114.596,-264.162C113.12,-257.847 111.64,-251.516 110.168,-245.22"/>
<ellipse fill="none" stroke="#7c31ca" cx="115.572" cy="-268.336" rx="4.00001" ry="4.00001"/>
<polygon fill="#7c31ca" stroke="#7c31ca" points="110.14,-245.1 112.245,-234.338 109.001,-240.231 107.863,-235.362 107.863,-235.362 107.863,-235.362 109.001,-240.231 103.481,-236.387 110.14,-245.1 110.14,-245.1"/>
</g>
<!-- Home -->
<g id="node5" class="node"><title>Home</title>
<path fill="none" stroke="black" d="M418.15,-644.6C418.15,-644.6 527.161,-644.6 527.161,-644.6 533.161,-644.6 539.161,-650.6 539.161,-656.6 539.161,-656.6 539.161,-749.4 539.161,-749.4 539.161,-755.4 533.161,-761.4 527.161,-761.4 527.161,-761.4 418.15,-761.4 418.15,-761.4 412.15,-761.4 406.15,-755.4 406.15,-749.4 406.15,-749.4 406.15,-656.6 406.15,-656.6 406.15,-650.6 412.15,-644.6 418.15,-644.6"/>
<text text-anchor="middle" x="472.656" y="-743.4" font-family="Times,serif" font-size="14.00">Home</text>
<polyline fill="none" stroke="black" points="406.15,-736.6 539.161,-736.6 "/>
<text text-anchor="start" x="414.15" y="-718.6" font-family="Times,serif" font-size="14.00">id :integer</text>
<text text-anchor="start" x="414.15" y="-701.8" font-family="Times,serif" font-size="14.00">title :string</text>
<text text-anchor="start" x="414.15" y="-685" font-family="Times,serif" font-size="14.00">content :text</text>
<text text-anchor="start" x="414.15" y="-668.2" font-family="Times,serif" font-size="14.00">created_at :datetime</text>
<text text-anchor="start" x="414.15" y="-651.4" font-family="Times,serif" font-size="14.00">updated_at :datetime</text>
</g>
<!-- Item -->
<g id="node7" class="node"><title>Item</title>
<path fill="none" stroke="black" d="M489.264,-297.6C489.264,-297.6 662.047,-297.6 662.047,-297.6 668.047,-297.6 674.047,-303.6 674.047,-309.6 674.047,-309.6 674.047,-486.4 674.047,-486.4 674.047,-492.4 668.047,-498.4 662.047,-498.4 662.047,-498.4 489.264,-498.4 489.264,-498.4 483.264,-498.4 477.264,-492.4 477.264,-486.4 477.264,-486.4 477.264,-309.6 477.264,-309.6 477.264,-303.6 483.264,-297.6 489.264,-297.6"/>
<text text-anchor="middle" x="575.656" y="-480.4" font-family="Times,serif" font-size="14.00">Item</text>
<polyline fill="none" stroke="black" points="477.264,-473.6 674.047,-473.6 "/>
<text text-anchor="start" x="485.264" y="-455.6" font-family="Times,serif" font-size="14.00">id :integer</text>
<text text-anchor="start" x="485.264" y="-438.8" font-family="Times,serif" font-size="14.00">name :string</text>
<text text-anchor="start" x="485.264" y="-422" font-family="Times,serif" font-size="14.00">content :text</text>
<text text-anchor="start" x="485.264" y="-405.2" font-family="Times,serif" font-size="14.00">member_username :string</text>
<text text-anchor="start" x="485.264" y="-388.4" font-family="Times,serif" font-size="14.00">created_at :datetime</text>
<text text-anchor="start" x="485.264" y="-371.6" font-family="Times,serif" font-size="14.00">updated_at :datetime</text>
<text text-anchor="start" x="485.264" y="-354.8" font-family="Times,serif" font-size="14.00">itemphoto_file_name :string</text>
<text text-anchor="start" x="485.264" y="-338" font-family="Times,serif" font-size="14.00">itemphoto_content_type :string</text>
<text text-anchor="start" x="485.264" y="-321.2" font-family="Times,serif" font-size="14.00">itemphoto_file_size :integer</text>
<text text-anchor="start" x="485.264" y="-304.4" font-family="Times,serif" font-size="14.00">itemphoto_updated_at :datetime</text>
</g>
<!-- Member -->
<g id="node8" class="node"><title>Member</title>
<path fill="none" stroke="black" d="M607.771,-560.6C607.771,-560.6 801.541,-560.6 801.541,-560.6 807.541,-560.6 813.541,-566.6 813.541,-572.6 813.541,-572.6 813.541,-833.4 813.541,-833.4 813.541,-839.4 807.541,-845.4 801.541,-845.4 801.541,-845.4 607.771,-845.4 607.771,-845.4 601.771,-845.4 595.771,-839.4 595.771,-833.4 595.771,-833.4 595.771,-572.6 595.771,-572.6 595.771,-566.6 601.771,-560.6 607.771,-560.6"/>
<text text-anchor="middle" x="704.656" y="-827.4" font-family="Times,serif" font-size="14.00">Member</text>
<polyline fill="none" stroke="black" points="595.771,-820.6 813.541,-820.6 "/>
<text text-anchor="start" x="603.771" y="-802.6" font-family="Times,serif" font-size="14.00">id :integer</text>
<text text-anchor="start" x="603.771" y="-785.8" font-family="Times,serif" font-size="14.00">username :string</text>
<text text-anchor="start" x="603.771" y="-769" font-family="Times,serif" font-size="14.00">first_name :string</text>
<text text-anchor="start" x="603.771" y="-752.2" font-family="Times,serif" font-size="14.00">last_name :string</text>
<text text-anchor="start" x="603.771" y="-735.4" font-family="Times,serif" font-size="14.00">hashed_password :string</text>
<text text-anchor="start" x="603.771" y="-718.6" font-family="Times,serif" font-size="14.00">salt :string</text>
<text text-anchor="start" x="603.771" y="-701.8" font-family="Times,serif" font-size="14.00">created_at :datetime</text>
<text text-anchor="start" x="603.771" y="-685" font-family="Times,serif" font-size="14.00">updated_at :datetime</text>
<text text-anchor="start" x="603.771" y="-668.2" font-family="Times,serif" font-size="14.00">memberphoto_file_name :string</text>
<text text-anchor="start" x="603.771" y="-651.4" font-family="Times,serif" font-size="14.00">memberphoto_content_type :string</text>
<text text-anchor="start" x="603.771" y="-634.6" font-family="Times,serif" font-size="14.00">memberphoto_file_size :integer</text>
<text text-anchor="start" x="603.771" y="-617.8" font-family="Times,serif" font-size="14.00">memberphoto_updated_at :datetime</text>
<text text-anchor="start" x="603.771" y="-601" font-family="Times,serif" font-size="14.00">auth_token :string</text>
<text text-anchor="start" x="603.771" y="-584.2" font-family="Times,serif" font-size="14.00">password_reset_token :string</text>
<text text-anchor="start" x="603.771" y="-567.4" font-family="Times,serif" font-size="14.00">password_reset_sent_at :datetime</text>
</g>
<!-- Review -->
<g id="node11" class="node"><title>Review</title>
<path fill="none" stroke="black" d="M711.661,-289.2C711.661,-289.2 897.651,-289.2 897.651,-289.2 903.651,-289.2 909.651,-295.2 909.651,-301.2 909.651,-301.2 909.651,-494.8 909.651,-494.8 909.651,-500.8 903.651,-506.8 897.651,-506.8 897.651,-506.8 711.661,-506.8 711.661,-506.8 705.661,-506.8 699.661,-500.8 699.661,-494.8 699.661,-494.8 699.661,-301.2 699.661,-301.2 699.661,-295.2 705.661,-289.2 711.661,-289.2"/>
<text text-anchor="middle" x="804.656" y="-488.8" font-family="Times,serif" font-size="14.00">Review</text>
<polyline fill="none" stroke="black" points="699.661,-482 909.651,-482 "/>
<text text-anchor="start" x="707.661" y="-464" font-family="Times,serif" font-size="14.00">id :integer</text>
<text text-anchor="start" x="707.661" y="-447.2" font-family="Times,serif" font-size="14.00">product_id :integer</text>
<text text-anchor="start" x="707.661" y="-430.4" font-family="Times,serif" font-size="14.00">title :string</text>
<text text-anchor="start" x="707.661" y="-413.6" font-family="Times,serif" font-size="14.00">content :text</text>
<text text-anchor="start" x="707.661" y="-396.8" font-family="Times,serif" font-size="14.00">member_username :string</text>
<text text-anchor="start" x="707.661" y="-380" font-family="Times,serif" font-size="14.00">created_at :datetime</text>
<text text-anchor="start" x="707.661" y="-363.2" font-family="Times,serif" font-size="14.00">updated_at :datetime</text>
<text text-anchor="start" x="707.661" y="-346.4" font-family="Times,serif" font-size="14.00">reviewphoto_file_name :string</text>
<text text-anchor="start" x="707.661" y="-329.6" font-family="Times,serif" font-size="14.00">reviewphoto_content_type :string</text>
<text text-anchor="start" x="707.661" y="-312.8" font-family="Times,serif" font-size="14.00">reviewphoto_file_size :integer</text>
<text text-anchor="start" x="707.661" y="-296" font-family="Times,serif" font-size="14.00">reviewphoto_updated_at :datetime</text>
</g>
<!-- Member&#45;&gt;Review -->
<g id="edge9" class="edge"><title>Member&#45;&gt;Review</title>
<path fill="none" stroke="#eb3d9e" d="M754.064,-552.294C757.994,-540.386 761.928,-528.464 765.771,-516.821"/>
<ellipse fill="none" stroke="#eb3d9e" cx="752.689" cy="-556.46" rx="4.00001" ry="4.00001"/>
<polygon fill="#eb3d9e" stroke="#eb3d9e" points="765.841,-516.61 773.248,-508.524 767.408,-511.861 768.975,-507.113 768.975,-507.113 768.975,-507.113 767.408,-511.861 764.702,-505.703 765.841,-516.61 765.841,-516.61"/>
</g>
<!-- Recipe -->
<g id="node10" class="node"><title>Recipe</title>
<path fill="none" stroke="black" d="M939.609,-297.6C939.609,-297.6 1121.7,-297.6 1121.7,-297.6 1127.7,-297.6 1133.7,-303.6 1133.7,-309.6 1133.7,-309.6 1133.7,-486.4 1133.7,-486.4 1133.7,-492.4 1127.7,-498.4 1121.7,-498.4 1121.7,-498.4 939.609,-498.4 939.609,-498.4 933.609,-498.4 927.609,-492.4 927.609,-486.4 927.609,-486.4 927.609,-309.6 927.609,-309.6 927.609,-303.6 933.609,-297.6 939.609,-297.6"/>
<text text-anchor="middle" x="1030.66" y="-480.4" font-family="Times,serif" font-size="14.00">Recipe</text>
<polyline fill="none" stroke="black" points="927.609,-473.6 1133.7,-473.6 "/>
<text text-anchor="start" x="935.609" y="-455.6" font-family="Times,serif" font-size="14.00">id :integer</text>
<text text-anchor="start" x="935.609" y="-438.8" font-family="Times,serif" font-size="14.00">title :string</text>
<text text-anchor="start" x="935.609" y="-422" font-family="Times,serif" font-size="14.00">content :text</text>
<text text-anchor="start" x="935.609" y="-405.2" font-family="Times,serif" font-size="14.00">member_username :string</text>
<text text-anchor="start" x="935.609" y="-388.4" font-family="Times,serif" font-size="14.00">created_at :datetime</text>
<text text-anchor="start" x="935.609" y="-371.6" font-family="Times,serif" font-size="14.00">updated_at :datetime</text>
<text text-anchor="start" x="935.609" y="-354.8" font-family="Times,serif" font-size="14.00">recipephoto_file_name :string</text>
<text text-anchor="start" x="935.609" y="-338" font-family="Times,serif" font-size="14.00">recipephoto_content_type :string</text>
<text text-anchor="start" x="935.609" y="-321.2" font-family="Times,serif" font-size="14.00">recipephoto_file_size :integer</text>
<text text-anchor="start" x="935.609" y="-304.4" font-family="Times,serif" font-size="14.00">recipephoto_updated_at :datetime</text>
</g>
<!-- Member&#45;&gt;Recipe -->
<g id="edge10" class="edge"><title>Member&#45;&gt;Recipe</title>
<path fill="none" stroke="#473857" d="M820.123,-561.105C820.633,-560.734 821.144,-560.366 821.656,-560 858.737,-533.516 879.977,-549.627 917.656,-524 925.82,-518.447 933.795,-512.186 941.49,-505.5"/>
<ellipse fill="none" stroke="#473857" cx="816.742" cy="-563.662" rx="4.00002" ry="4.00002"/>
<polygon fill="#473857" stroke="#473857" points="941.645,-505.361 952.093,-502.031 945.366,-502.022 949.087,-498.682 949.087,-498.682 949.087,-498.682 945.366,-502.022 946.082,-495.333 941.645,-505.361 941.645,-505.361"/>
</g>
<!-- Member&#45;&gt;Item -->
<g id="edge11" class="edge"><title>Member&#45;&gt;Item</title>
<path fill="none" stroke="#e44de2" d="M640.987,-552.453C634.622,-537.502 628.246,-522.525 622.107,-508.106"/>
<ellipse fill="none" stroke="#e44de2" cx="642.744" cy="-556.578" rx="4.00001" ry="4.00001"/>
<polygon fill="#e44de2" stroke="#e44de2" points="622.027,-507.918 622.25,-496.954 620.068,-503.317 618.11,-498.717 618.11,-498.717 618.11,-498.717 620.068,-503.317 613.969,-500.48 622.027,-507.918 622.027,-507.918"/>
</g>
<!-- Product -->
<g id="node9" class="node"><title>Product</title>
<path fill="none" stroke="black" d="M843.15,-653C843.15,-653 952.161,-653 952.161,-653 958.161,-653 964.161,-659 964.161,-665 964.161,-665 964.161,-741 964.161,-741 964.161,-747 958.161,-753 952.161,-753 952.161,-753 843.15,-753 843.15,-753 837.15,-753 831.15,-747 831.15,-741 831.15,-741 831.15,-665 831.15,-665 831.15,-659 837.15,-653 843.15,-653"/>
<text text-anchor="middle" x="897.656" y="-735" font-family="Times,serif" font-size="14.00">Product</text>
<polyline fill="none" stroke="black" points="831.15,-728.2 964.161,-728.2 "/>
<text text-anchor="start" x="839.15" y="-710.2" font-family="Times,serif" font-size="14.00">id :integer</text>
<text text-anchor="start" x="839.15" y="-693.4" font-family="Times,serif" font-size="14.00">title :string</text>
<text text-anchor="start" x="839.15" y="-676.6" font-family="Times,serif" font-size="14.00">created_at :datetime</text>
<text text-anchor="start" x="839.15" y="-659.8" font-family="Times,serif" font-size="14.00">updated_at :datetime</text>
</g>
<!-- Product&#45;&gt;Review -->
<g id="edge13" class="edge"><title>Product&#45;&gt;Review</title>
<path fill="none" stroke="#588e19" d="M880.135,-644.917C869.04,-608.768 854.285,-560.694 840.764,-516.644"/>
<ellipse fill="none" stroke="#588e19" cx="881.437" cy="-649.157" rx="4.00001" ry="4.00001"/>
<polygon fill="#588e19" stroke="#588e19" points="840.744,-516.579 842.112,-505.699 839.277,-511.799 837.81,-507.019 837.81,-507.019 837.81,-507.019 839.277,-511.799 833.508,-508.34 840.744,-516.579 840.744,-516.579"/>
</g>
<!-- ActiveRecord::Base -->
<g id="node12" class="node"><title>ActiveRecord::Base</title>
<ellipse fill="none" stroke="black" cx="520.656" cy="-925" rx="88.2033" ry="18"/>
<text text-anchor="middle" x="520.656" y="-919.4" font-family="Times,serif" font-size="14.00">ActiveRecord::Base</text>
</g>
<!-- ActiveRecord::Base&#45;&gt;Admin -->
<g id="edge2" class="edge"><title>ActiveRecord::Base&#45;&gt;Admin</title>
<path fill="none" stroke="black" d="M488.175,-908.093C469.389,-899.401 445.095,-889.009 422.656,-882 346.03,-858.064 311.296,-892.215 245.656,-846 227.156,-832.975 211.916,-814.586 199.675,-795.347"/>
</g>
<!-- ActiveRecord::Base&#45;&gt;Contact -->
<g id="edge3" class="edge"><title>ActiveRecord::Base&#45;&gt;Contact</title>
<path fill="none" stroke="black" d="M485.908,-908.393C458.935,-894.918 421.988,-873.322 396.656,-846 376.373,-824.124 359.944,-795.728 347.689,-770.084"/>
</g>
<!-- ActiveRecord::Base&#45;&gt;Event -->
<g id="edge5" class="edge"><title>ActiveRecord::Base&#45;&gt;Event</title>
<path fill="none" stroke="black" d="M490.166,-908.094C471.239,-898.945 446.128,-888.089 422.656,-882 347.187,-862.421 125.882,-903.89 73.6558,-846 31.0832,-798.81 60.3906,-622.156 73.6558,-560 76.2121,-548.022 79.7274,-535.857 83.8395,-523.855"/>
</g>
<!-- ActiveRecord::Base&#45;&gt;Home -->
<g id="edge6" class="edge"><title>ActiveRecord::Base&#45;&gt;Home</title>
<path fill="none" stroke="black" d="M516.889,-906.737C510.149,-875.842 495.742,-809.812 485.195,-761.47"/>
</g>
<!-- ActiveRecord::Base&#45;&gt;Invitee -->
<g id="edge7" class="edge"><title>ActiveRecord::Base&#45;&gt;Invitee</title>
<path fill="none" stroke="black" d="M490.182,-908.034C471.26,-898.863 446.149,-888.006 422.656,-882 341.548,-861.264 105.097,-906.901 47.6558,-846 -39.8843,-753.187 17.4702,-398.281 35.6558,-272 37.3725,-260.079 39.8052,-247.791 42.6608,-235.606"/>
</g>
<!-- ActiveRecord::Base&#45;&gt;Item -->
<g id="edge8" class="edge"><title>ActiveRecord::Base&#45;&gt;Item</title>
<path fill="none" stroke="black" d="M528.033,-907.024C534.428,-891.469 543.317,-867.637 547.656,-846 571.275,-728.211 576.584,-589.786 577.08,-498.535"/>
</g>
<!-- ActiveRecord::Base&#45;&gt;Member -->
<g id="edge12" class="edge"><title>ActiveRecord::Base&#45;&gt;Member</title>
<path fill="none" stroke="black" d="M534.788,-907.102C548.716,-890.45 571.388,-863.342 595.696,-834.278"/>
</g>
<!-- ActiveRecord::Base&#45;&gt;Product -->
<g id="edge14" class="edge"><title>ActiveRecord::Base&#45;&gt;Product</title>
<path fill="none" stroke="black" d="M605.976,-920.089C671.126,-913.116 759.918,-894.558 821.656,-846 851.436,-822.577 870.983,-784.168 882.786,-753.198"/>
</g>
<!-- ActiveRecord::Base&#45;&gt;Recipe -->
<g id="edge15" class="edge"><title>ActiveRecord::Base&#45;&gt;Recipe</title>
<path fill="none" stroke="black" d="M608.155,-922.344C732.082,-917.994 949.406,-902.313 1000.66,-846 1085.2,-753.1 1075.01,-599.515 1055.97,-498.785"/>
</g>
<!-- ActiveRecord::Base&#45;&gt;Review -->
<g id="edge16" class="edge"><title>ActiveRecord::Base&#45;&gt;Review</title>
<path fill="none" stroke="black" d="M607.757,-921.808C725.747,-916.789 926.937,-900.284 972.656,-846 1013.6,-797.388 1002.64,-616.035 972.656,-560 959.045,-534.569 940.536,-542.795 918.656,-524 912.417,-518.641 906.18,-512.959 900.018,-507.089"/>
</g>
</g>
</svg>
