<?xml version="1.0" encoding="UTF-8" standalone="no"?>
<!DOCTYPE svg PUBLIC "-//W3C//DTD SVG 1.1//EN"
 "http://www.w3.org/Graphics/SVG/1.1/DTD/svg11.dtd">
<!-- Generated by graphviz version 2.30.1 (20140127.2004)
 -->
<!-- Title: models_diagram Pages: 1 -->
<svg width="686pt" height="310pt"
 viewBox="0.00 0.00 686.00 310.00" xmlns="http://www.w3.org/2000/svg" xmlns:xlink="http://www.w3.org/1999/xlink">
<g id="graph0" class="graph" transform="scale(1 1) rotate(0) translate(4 306)">
<title>models_diagram</title>
<polygon fill="white" stroke="white" points="-4,5 -4,-306 683,-306 683,5 -4,5"/>
<!-- _diagram_info -->
<g id="node1" class="node"><title>_diagram_info</title>
<text text-anchor="start" x="27.3123" y="-285" font-family="Times,serif" font-size="13.00">Models diagram</text>
<text text-anchor="start" x="27.3123" y="-269.4" font-family="Times,serif" font-size="13.00">Date: Jan 27 2014 &#45; 12:38</text>
<text text-anchor="start" x="27.3123" y="-253.8" font-family="Times,serif" font-size="13.00">Migration version: 20140126061904</text>
<text text-anchor="start" x="27.3123" y="-238.2" font-family="Times,serif" font-size="13.00">Generated by RailRoady 1.1.1</text>
<text text-anchor="start" x="27.3123" y="-222.6" font-family="Times,serif" font-size="13.00">http://railroady.prestonlee.com</text>
</g>
<!-- Admin -->
<g id="node2" class="node"><title>Admin</title>
<ellipse fill="none" stroke="black" cx="110" cy="-162" rx="37.2949" ry="18"/>
<text text-anchor="middle" x="110" y="-156.4" font-family="Times,serif" font-size="14.00">Admin</text>
</g>
<!-- Event -->
<g id="node4" class="node"><title>Event</title>
<ellipse fill="none" stroke="black" cx="68" cy="-90" rx="33.3419" ry="18"/>
<text text-anchor="middle" x="68" y="-84.4" font-family="Times,serif" font-size="14.00">Event</text>
</g>
<!-- Admin&#45;&gt;Event -->
<g id="edge1" class="edge"><title>Admin&#45;&gt;Event</title>
<path fill="none" stroke="#15902d" d="M95.9153,-137.526C91.8476,-130.746 87.3901,-123.317 83.2547,-116.425"/>
<ellipse fill="none" stroke="#15902d" cx="97.9886" cy="-140.981" rx="4.00002" ry="4.00002"/>
<polygon fill="#15902d" stroke="#15902d" points="83.027,-116.045 81.7407,-105.155 80.4545,-111.757 77.882,-107.47 77.882,-107.47 77.882,-107.47 80.4545,-111.757 74.0232,-109.785 83.027,-116.045 83.027,-116.045"/>
</g>
<!-- Contact -->
<g id="node3" class="node"><title>Contact</title>
<ellipse fill="none" stroke="black" cx="207" cy="-162" rx="41.1096" ry="18"/>
<text text-anchor="middle" x="207" y="-156.4" font-family="Times,serif" font-size="14.00">Contact</text>
</g>
<!-- Invitee -->
<g id="node6" class="node"><title>Invitee</title>
<ellipse fill="none" stroke="black" cx="37" cy="-18" rx="37.2739" ry="18"/>
<text text-anchor="middle" x="37" y="-12.4" font-family="Times,serif" font-size="14.00">Invitee</text>
</g>
<!-- Event&#45;&gt;Invitee -->
<g id="edge4" class="edge"><title>Event&#45;&gt;Invitee</title>
<path fill="none" stroke="#cb3b65" d="M57.3991,-65.0625C54.5515,-58.6325 51.4581,-51.6473 48.5612,-45.106"/>
<ellipse fill="none" stroke="#cb3b65" cx="59.0337" cy="-68.7536" rx="4.00002" ry="4.00002"/>
<polygon fill="#cb3b65" stroke="#cb3b65" points="48.5585,-45.0997 48.6238,-34.134 46.5338,-40.528 44.5092,-35.9562 44.5092,-35.9562 44.5092,-35.9562 46.5338,-40.528 40.3946,-37.7784 48.5585,-45.0997 48.5585,-45.0997"/>
</g>
<!-- Home -->
<g id="node5" class="node"><title>Home</title>
<ellipse fill="none" stroke="black" cx="301" cy="-162" rx="34.4542" ry="18"/>
<text text-anchor="middle" x="301" y="-156.4" font-family="Times,serif" font-size="14.00">Home</text>
</g>
<!-- Item -->
<g id="node7" class="node"><title>Item</title>
<ellipse fill="none" stroke="black" cx="400" cy="-90" rx="28.5985" ry="18"/>
<text text-anchor="middle" x="400" y="-84.4" font-family="Times,serif" font-size="14.00">Item</text>
</g>
<!-- Member -->
<g id="node8" class="node"><title>Member</title>
<ellipse fill="none" stroke="black" cx="436" cy="-162" rx="43.1305" ry="18"/>
<text text-anchor="middle" x="436" y="-156.4" font-family="Times,serif" font-size="14.00">Member</text>
</g>
<!-- Review -->
<g id="node11" class="node"><title>Review</title>
<ellipse fill="none" stroke="black" cx="539" cy="-90" rx="40.303" ry="18"/>
<text text-anchor="middle" x="539" y="-84.4" font-family="Times,serif" font-size="14.00">Review</text>
</g>
<!-- Member&#45;&gt;Review -->
<g id="edge9" class="edge"><title>Member&#45;&gt;Review</title>
<path fill="none" stroke="#e22e02" d="M464.792,-141.433C478.752,-131.945 495.496,-120.566 509.543,-111.019"/>
<ellipse fill="none" stroke="#e22e02" cx="461.152" cy="-143.906" rx="4.00002" ry="4.00002"/>
<polygon fill="#e22e02" stroke="#e22e02" points="509.622,-110.966 520.422,-109.067 513.757,-108.156 517.892,-105.345 517.892,-105.345 517.892,-105.345 513.757,-108.156 515.363,-101.623 509.622,-110.966 509.622,-110.966"/>
</g>
<!-- Recipe -->
<g id="node10" class="node"><title>Recipe</title>
<ellipse fill="none" stroke="black" cx="640" cy="-90" rx="37.2739" ry="18"/>
<text text-anchor="middle" x="640" y="-84.4" font-family="Times,serif" font-size="14.00">Recipe</text>
</g>
<!-- Member&#45;&gt;Recipe -->
<g id="edge10" class="edge"><title>Member&#45;&gt;Recipe</title>
<path fill="none" stroke="#96f6c6" d="M475.949,-147.292C512.075,-134.896 564.952,-116.752 600.834,-104.439"/>
<ellipse fill="none" stroke="#96f6c6" cx="472.108" cy="-148.61" rx="4.00001" ry="4.00001"/>
<polygon fill="#96f6c6" stroke="#96f6c6" points="601.018,-104.376 611.937,-105.387 605.747,-102.754 610.476,-101.131 610.476,-101.131 610.476,-101.131 605.747,-102.754 609.016,-96.8743 601.018,-104.376 601.018,-104.376"/>
</g>
<!-- Member&#45;&gt;Item -->
<g id="edge11" class="edge"><title>Member&#45;&gt;Item</title>
<path fill="none" stroke="#0ed6bd" d="M423.6,-136.889C420.226,-130.328 416.56,-123.199 413.145,-116.56"/>
<ellipse fill="none" stroke="#0ed6bd" cx="425.456" cy="-140.498" rx="4.00002" ry="4.00002"/>
<polygon fill="#0ed6bd" stroke="#0ed6bd" points="412.96,-116.2 412.388,-105.249 410.673,-111.753 408.386,-107.307 408.386,-107.307 408.386,-107.307 410.673,-111.753 404.385,-109.365 412.96,-116.2 412.96,-116.2"/>
</g>
<!-- Product -->
<g id="node9" class="node"><title>Product</title>
<ellipse fill="none" stroke="black" cx="539" cy="-162" rx="41.1166" ry="18"/>
<text text-anchor="middle" x="539" y="-156.4" font-family="Times,serif" font-size="14.00">Product</text>
</g>
<!-- Product&#45;&gt;Review -->
<g id="edge13" class="edge"><title>Product&#45;&gt;Review</title>
<path fill="none" stroke="#d5e825" d="M539,-135.64C539,-130.063 539,-124.132 539,-118.476"/>
<ellipse fill="none" stroke="#d5e825" cx="539" cy="-139.697" rx="4" ry="4"/>
<polygon fill="#d5e825" stroke="#d5e825" points="539,-118.104 543.5,-108.104 539,-113.104 539,-108.104 539,-108.104 539,-108.104 539,-113.104 534.5,-108.104 539,-118.104 539,-118.104"/>
</g>
<!-- ActiveRecord::Base -->
<g id="node12" class="node"><title>ActiveRecord::Base</title>
<ellipse fill="none" stroke="black" cx="333" cy="-259" rx="88.2033" ry="18"/>
<text text-anchor="middle" x="333" y="-253.4" font-family="Times,serif" font-size="14.00">ActiveRecord::Base</text>
</g>
<!-- ActiveRecord::Base&#45;&gt;Admin -->
<g id="edge2" class="edge"><title>ActiveRecord::Base&#45;&gt;Admin</title>
<path fill="none" stroke="black" d="M296.713,-242.409C278.244,-234.483 255.434,-224.71 235,-216 201.39,-201.673 162.656,-185.266 137.323,-174.549"/>
</g>
<!-- ActiveRecord::Base&#45;&gt;Contact -->
<g id="edge3" class="edge"><title>ActiveRecord::Base&#45;&gt;Contact</title>
<path fill="none" stroke="black" d="M311.052,-241.452C287.362,-223.59 249.954,-195.386 227.035,-178.106"/>
</g>
<!-- ActiveRecord::Base&#45;&gt;Event -->
<g id="edge5" class="edge"><title>ActiveRecord::Base&#45;&gt;Event</title>
<path fill="none" stroke="black" d="M300.504,-242.142C281.713,-233.465 257.419,-223.073 235,-216 160.518,-192.502 112.245,-240.619 63,-180 46.5091,-159.7 53.9704,-127.416 60.9463,-107.817"/>
</g>
<!-- ActiveRecord::Base&#45;&gt;Home -->
<g id="edge6" class="edge"><title>ActiveRecord::Base&#45;&gt;Home</title>
<path fill="none" stroke="black" d="M327.279,-241.016C321.454,-223.724 312.478,-197.076 306.671,-179.837"/>
</g>
<!-- ActiveRecord::Base&#45;&gt;Invitee -->
<g id="edge7" class="edge"><title>ActiveRecord::Base&#45;&gt;Invitee</title>
<path fill="none" stroke="black" d="M300.542,-242.021C281.763,-233.305 257.469,-222.914 235,-216 154.941,-191.363 113.283,-234.879 50,-180 8.68787,-144.174 22.7694,-69.512 31.8257,-35.965"/>
</g>
<!-- ActiveRecord::Base&#45;&gt;Item -->
<g id="edge8" class="edge"><title>ActiveRecord::Base&#45;&gt;Item</title>
<path fill="none" stroke="black" d="M339.918,-240.757C352.823,-208.589 380.419,-139.806 393.22,-107.9"/>
</g>
<!-- ActiveRecord::Base&#45;&gt;Member -->
<g id="edge12" class="edge"><title>ActiveRecord::Base&#45;&gt;Member</title>
<path fill="none" stroke="black" d="M351.414,-241.016C370.51,-223.404 400.128,-196.085 418.773,-178.889"/>
</g>
<!-- ActiveRecord::Base&#45;&gt;Product -->
<g id="edge14" class="edge"><title>ActiveRecord::Base&#45;&gt;Product</title>
<path fill="none" stroke="black" d="M367.017,-242.313C407.585,-223.604 474.577,-192.71 511.847,-175.522"/>
</g>
<!-- ActiveRecord::Base&#45;&gt;Recipe -->
<g id="edge15" class="edge"><title>ActiveRecord::Base&#45;&gt;Recipe</title>
<path fill="none" stroke="black" d="M417.133,-253.437C476.608,-245.997 554.591,-227.138 606,-180 626.603,-161.108 634.821,-128.373 638.027,-108.305"/>
</g>
<!-- ActiveRecord::Base&#45;&gt;Review -->
<g id="edge16" class="edge"><title>ActiveRecord::Base&#45;&gt;Review</title>
<path fill="none" stroke="black" d="M399.017,-246.998C467.036,-234.158 566.254,-210.708 589,-180 606.933,-155.789 579,-124.486 558.208,-106.187"/>
</g>
</g>
</svg>
