<?xml version="1.0" encoding="UTF-8" standalone="no"?>
<!DOCTYPE svg PUBLIC "-//W3C//DTD SVG 1.1//EN"
 "http://www.w3.org/Graphics/SVG/1.1/DTD/svg11.dtd">
<!-- Generated by graphviz version 2.30.1 (20140127.2004)
 -->
<!-- Title: models_diagram Pages: 1 -->
<svg width="1612pt" height="706pt"
 viewBox="0.00 0.00 1611.93 706.00" xmlns="http://www.w3.org/2000/svg" xmlns:xlink="http://www.w3.org/1999/xlink">
<g id="graph0" class="graph" transform="scale(1 1) rotate(0) translate(4 702)">
<title>models_diagram</title>
<polygon fill="white" stroke="white" points="-4,5 -4,-702 1608.93,-702 1608.93,5 -4,5"/>
<!-- _diagram_info -->
<g id="node1" class="node"><title>_diagram_info</title>
<text text-anchor="start" x="463.312" y="-681" font-family="Times,serif" font-size="13.00">Models diagram</text>
<text text-anchor="start" x="463.312" y="-665.4" font-family="Times,serif" font-size="13.00">Date: Feb 25 2014 &#45; 11:34</text>
<text text-anchor="start" x="463.312" y="-649.8" font-family="Times,serif" font-size="13.00">Migration version: 20140218224149</text>
<text text-anchor="start" x="463.312" y="-634.2" font-family="Times,serif" font-size="13.00">Generated by RailRoady 1.1.1</text>
<text text-anchor="start" x="463.312" y="-618.6" font-family="Times,serif" font-size="13.00">http://railroady.prestonlee.com</text>
</g>
<!-- Admin -->
<g id="node2" class="node"><title>Admin</title>
<path fill="none" stroke="black" d="M11.981,-332C11.981,-332 142.019,-332 142.019,-332 148.019,-332 154.019,-338 154.019,-344 154.019,-344 154.019,-504 154.019,-504 154.019,-510 148.019,-516 142.019,-516 142.019,-516 11.981,-516 11.981,-516 5.98096,-516 -0.019043,-510 -0.019043,-504 -0.019043,-504 -0.019043,-344 -0.019043,-344 -0.019043,-338 5.98096,-332 11.981,-332"/>
<text text-anchor="middle" x="77" y="-498" font-family="Times,serif" font-size="14.00">Admin</text>
<polyline fill="none" stroke="black" points="-0.019043,-491.2 154.019,-491.2 "/>
<text text-anchor="start" x="7.98096" y="-473.2" font-family="Times,serif" font-size="14.00">id :integer</text>
<text text-anchor="start" x="7.98096" y="-456.4" font-family="Times,serif" font-size="14.00">first_name :string</text>
<text text-anchor="start" x="7.98096" y="-439.6" font-family="Times,serif" font-size="14.00">last_name :string</text>
<text text-anchor="start" x="7.98096" y="-422.8" font-family="Times,serif" font-size="14.00">username :string</text>
<text text-anchor="start" x="7.98096" y="-406" font-family="Times,serif" font-size="14.00">emailId :string</text>
<text text-anchor="start" x="7.98096" y="-389.2" font-family="Times,serif" font-size="14.00">hashed_password :string</text>
<text text-anchor="start" x="7.98096" y="-372.4" font-family="Times,serif" font-size="14.00">salt :string</text>
<text text-anchor="start" x="7.98096" y="-355.6" font-family="Times,serif" font-size="14.00">created_at :datetime</text>
<text text-anchor="start" x="7.98096" y="-338.8" font-family="Times,serif" font-size="14.00">updated_at :datetime</text>
</g>
<!-- Contact -->
<g id="node3" class="node"><title>Contact</title>
<path fill="none" stroke="black" d="M184.495,-357.2C184.495,-357.2 293.505,-357.2 293.505,-357.2 299.505,-357.2 305.505,-363.2 305.505,-369.2 305.505,-369.2 305.505,-478.8 305.505,-478.8 305.505,-484.8 299.505,-490.8 293.505,-490.8 293.505,-490.8 184.495,-490.8 184.495,-490.8 178.495,-490.8 172.495,-484.8 172.495,-478.8 172.495,-478.8 172.495,-369.2 172.495,-369.2 172.495,-363.2 178.495,-357.2 184.495,-357.2"/>
<text text-anchor="middle" x="239" y="-472.8" font-family="Times,serif" font-size="14.00">Contact</text>
<polyline fill="none" stroke="black" points="172.495,-466 305.505,-466 "/>
<text text-anchor="start" x="180.495" y="-448" font-family="Times,serif" font-size="14.00">id :integer</text>
<text text-anchor="start" x="180.495" y="-431.2" font-family="Times,serif" font-size="14.00">name :string</text>
<text text-anchor="start" x="180.495" y="-414.4" font-family="Times,serif" font-size="14.00">emailid :string</text>
<text text-anchor="start" x="180.495" y="-397.6" font-family="Times,serif" font-size="14.00">facebook :string</text>
<text text-anchor="start" x="180.495" y="-380.8" font-family="Times,serif" font-size="14.00">created_at :datetime</text>
<text text-anchor="start" x="180.495" y="-364" font-family="Times,serif" font-size="14.00">updated_at :datetime</text>
</g>
<!-- Event -->
<g id="node4" class="node"><title>Event</title>
<path fill="none" stroke="black" d="M335.891,-306.8C335.891,-306.8 514.109,-306.8 514.109,-306.8 520.109,-306.8 526.109,-312.8 526.109,-318.8 526.109,-318.8 526.109,-529.2 526.109,-529.2 526.109,-535.2 520.109,-541.2 514.109,-541.2 514.109,-541.2 335.891,-541.2 335.891,-541.2 329.891,-541.2 323.891,-535.2 323.891,-529.2 323.891,-529.2 323.891,-318.8 323.891,-318.8 323.891,-312.8 329.891,-306.8 335.891,-306.8"/>
<text text-anchor="middle" x="425" y="-523.2" font-family="Times,serif" font-size="14.00">Event</text>
<polyline fill="none" stroke="black" points="323.891,-516.4 526.109,-516.4 "/>
<text text-anchor="start" x="331.891" y="-498.4" font-family="Times,serif" font-size="14.00">id :integer</text>
<text text-anchor="start" x="331.891" y="-481.6" font-family="Times,serif" font-size="14.00">name :string</text>
<text text-anchor="start" x="331.891" y="-464.8" font-family="Times,serif" font-size="14.00">datetime :datetime</text>
<text text-anchor="start" x="331.891" y="-448" font-family="Times,serif" font-size="14.00">duration :integer</text>
<text text-anchor="start" x="331.891" y="-431.2" font-family="Times,serif" font-size="14.00">address :string</text>
<text text-anchor="start" x="331.891" y="-414.4" font-family="Times,serif" font-size="14.00">description :text</text>
<text text-anchor="start" x="331.891" y="-397.6" font-family="Times,serif" font-size="14.00">created_at :datetime</text>
<text text-anchor="start" x="331.891" y="-380.8" font-family="Times,serif" font-size="14.00">updated_at :datetime</text>
<text text-anchor="start" x="331.891" y="-364" font-family="Times,serif" font-size="14.00">eventphoto_file_name :string</text>
<text text-anchor="start" x="331.891" y="-347.2" font-family="Times,serif" font-size="14.00">eventphoto_content_type :string</text>
<text text-anchor="start" x="331.891" y="-330.4" font-family="Times,serif" font-size="14.00">eventphoto_file_size :integer</text>
<text text-anchor="start" x="331.891" y="-313.6" font-family="Times,serif" font-size="14.00">eventphoto_updated_at :datetime</text>
</g>
<!-- Invitee -->
<g id="node6" class="node"><title>Invitee</title>
<path fill="none" stroke="black" d="M510.495,-0.8C510.495,-0.8 619.505,-0.8 619.505,-0.8 625.505,-0.8 631.505,-6.8 631.505,-12.8 631.505,-12.8 631.505,-223.2 631.505,-223.2 631.505,-229.2 625.505,-235.2 619.505,-235.2 619.505,-235.2 510.495,-235.2 510.495,-235.2 504.495,-235.2 498.495,-229.2 498.495,-223.2 498.495,-223.2 498.495,-12.8 498.495,-12.8 498.495,-6.8 504.495,-0.8 510.495,-0.8"/>
<text text-anchor="middle" x="565" y="-217.2" font-family="Times,serif" font-size="14.00">Invitee</text>
<polyline fill="none" stroke="black" points="498.495,-210.4 631.505,-210.4 "/>
<text text-anchor="start" x="506.495" y="-192.4" font-family="Times,serif" font-size="14.00">id :integer</text>
<text text-anchor="start" x="506.495" y="-175.6" font-family="Times,serif" font-size="14.00">email :string</text>
<text text-anchor="start" x="506.495" y="-158.8" font-family="Times,serif" font-size="14.00">event_id :integer</text>
<text text-anchor="start" x="506.495" y="-142" font-family="Times,serif" font-size="14.00">firstname :string</text>
<text text-anchor="start" x="506.495" y="-125.2" font-family="Times,serif" font-size="14.00">invited :boolean</text>
<text text-anchor="start" x="506.495" y="-108.4" font-family="Times,serif" font-size="14.00">responded :boolean</text>
<text text-anchor="start" x="506.495" y="-91.6" font-family="Times,serif" font-size="14.00">response :string</text>
<text text-anchor="start" x="506.495" y="-74.8" font-family="Times,serif" font-size="14.00">adults :integer</text>
<text text-anchor="start" x="506.495" y="-58" font-family="Times,serif" font-size="14.00">kids :integer</text>
<text text-anchor="start" x="506.495" y="-41.2" font-family="Times,serif" font-size="14.00">message :text</text>
<text text-anchor="start" x="506.495" y="-24.4" font-family="Times,serif" font-size="14.00">created_at :datetime</text>
<text text-anchor="start" x="506.495" y="-7.6" font-family="Times,serif" font-size="14.00">updated_at :datetime</text>
</g>
<!-- Event&#45;&gt;Invitee -->
<g id="edge3" class="edge"><title>Event&#45;&gt;Invitee</title>
<path fill="none" stroke="#f1942e" d="M481.952,-299.334C490.234,-281.35 498.768,-262.817 507.069,-244.792"/>
<ellipse fill="none" stroke="#f1942e" cx="480.2" cy="-303.136" rx="4.00002" ry="4.00002"/>
<polygon fill="#f1942e" stroke="#f1942e" points="507.204,-244.501 515.474,-237.3 509.295,-239.959 511.387,-235.418 511.387,-235.418 511.387,-235.418 509.295,-239.959 507.299,-233.535 507.204,-244.501 507.204,-244.501"/>
</g>
<!-- Home -->
<g id="node5" class="node"><title>Home</title>
<path fill="none" stroke="black" d="M556.495,-365.6C556.495,-365.6 665.505,-365.6 665.505,-365.6 671.505,-365.6 677.505,-371.6 677.505,-377.6 677.505,-377.6 677.505,-470.4 677.505,-470.4 677.505,-476.4 671.505,-482.4 665.505,-482.4 665.505,-482.4 556.495,-482.4 556.495,-482.4 550.495,-482.4 544.495,-476.4 544.495,-470.4 544.495,-470.4 544.495,-377.6 544.495,-377.6 544.495,-371.6 550.495,-365.6 556.495,-365.6"/>
<text text-anchor="middle" x="611" y="-464.4" font-family="Times,serif" font-size="14.00">Home</text>
<polyline fill="none" stroke="black" points="544.495,-457.6 677.505,-457.6 "/>
<text text-anchor="start" x="552.495" y="-439.6" font-family="Times,serif" font-size="14.00">id :integer</text>
<text text-anchor="start" x="552.495" y="-422.8" font-family="Times,serif" font-size="14.00">title :string</text>
<text text-anchor="start" x="552.495" y="-406" font-family="Times,serif" font-size="14.00">content :text</text>
<text text-anchor="start" x="552.495" y="-389.2" font-family="Times,serif" font-size="14.00">created_at :datetime</text>
<text text-anchor="start" x="552.495" y="-372.4" font-family="Times,serif" font-size="14.00">updated_at :datetime</text>
</g>
<!-- Item -->
<g id="node7" class="node"><title>Item</title>
<path fill="none" stroke="black" d="M745.608,-323.6C745.608,-323.6 918.392,-323.6 918.392,-323.6 924.392,-323.6 930.392,-329.6 930.392,-335.6 930.392,-335.6 930.392,-512.4 930.392,-512.4 930.392,-518.4 924.392,-524.4 918.392,-524.4 918.392,-524.4 745.608,-524.4 745.608,-524.4 739.608,-524.4 733.608,-518.4 733.608,-512.4 733.608,-512.4 733.608,-335.6 733.608,-335.6 733.608,-329.6 739.608,-323.6 745.608,-323.6"/>
<text text-anchor="middle" x="832" y="-506.4" font-family="Times,serif" font-size="14.00">Item</text>
<polyline fill="none" stroke="black" points="733.608,-499.6 930.392,-499.6 "/>
<text text-anchor="start" x="741.608" y="-481.6" font-family="Times,serif" font-size="14.00">id :integer</text>
<text text-anchor="start" x="741.608" y="-464.8" font-family="Times,serif" font-size="14.00">name :string</text>
<text text-anchor="start" x="741.608" y="-448" font-family="Times,serif" font-size="14.00">content :text</text>
<text text-anchor="start" x="741.608" y="-431.2" font-family="Times,serif" font-size="14.00">posted_by :string</text>
<text text-anchor="start" x="741.608" y="-414.4" font-family="Times,serif" font-size="14.00">created_at :datetime</text>
<text text-anchor="start" x="741.608" y="-397.6" font-family="Times,serif" font-size="14.00">updated_at :datetime</text>
<text text-anchor="start" x="741.608" y="-380.8" font-family="Times,serif" font-size="14.00">itemphoto_file_name :string</text>
<text text-anchor="start" x="741.608" y="-364" font-family="Times,serif" font-size="14.00">itemphoto_content_type :string</text>
<text text-anchor="start" x="741.608" y="-347.2" font-family="Times,serif" font-size="14.00">itemphoto_file_size :integer</text>
<text text-anchor="start" x="741.608" y="-330.4" font-family="Times,serif" font-size="14.00">itemphoto_updated_at :datetime</text>
</g>
<!-- Member -->
<g id="node8" class="node"><title>Member</title>
<path fill="none" stroke="black" d="M960.115,-273.2C960.115,-273.2 1153.88,-273.2 1153.88,-273.2 1159.88,-273.2 1165.88,-279.2 1165.88,-285.2 1165.88,-285.2 1165.88,-562.8 1165.88,-562.8 1165.88,-568.8 1159.88,-574.8 1153.88,-574.8 1153.88,-574.8 960.115,-574.8 960.115,-574.8 954.115,-574.8 948.115,-568.8 948.115,-562.8 948.115,-562.8 948.115,-285.2 948.115,-285.2 948.115,-279.2 954.115,-273.2 960.115,-273.2"/>
<text text-anchor="middle" x="1057" y="-556.8" font-family="Times,serif" font-size="14.00">Member</text>
<polyline fill="none" stroke="black" points="948.115,-550 1165.88,-550 "/>
<text text-anchor="start" x="956.115" y="-532" font-family="Times,serif" font-size="14.00">id :integer</text>
<text text-anchor="start" x="956.115" y="-515.2" font-family="Times,serif" font-size="14.00">username :string</text>
<text text-anchor="start" x="956.115" y="-498.4" font-family="Times,serif" font-size="14.00">first_name :string</text>
<text text-anchor="start" x="956.115" y="-481.6" font-family="Times,serif" font-size="14.00">last_name :string</text>
<text text-anchor="start" x="956.115" y="-464.8" font-family="Times,serif" font-size="14.00">hashed_password :string</text>
<text text-anchor="start" x="956.115" y="-448" font-family="Times,serif" font-size="14.00">salt :string</text>
<text text-anchor="start" x="956.115" y="-431.2" font-family="Times,serif" font-size="14.00">created_at :datetime</text>
<text text-anchor="start" x="956.115" y="-414.4" font-family="Times,serif" font-size="14.00">updated_at :datetime</text>
<text text-anchor="start" x="956.115" y="-397.6" font-family="Times,serif" font-size="14.00">memberphoto_file_name :string</text>
<text text-anchor="start" x="956.115" y="-380.8" font-family="Times,serif" font-size="14.00">memberphoto_content_type :string</text>
<text text-anchor="start" x="956.115" y="-364" font-family="Times,serif" font-size="14.00">memberphoto_file_size :integer</text>
<text text-anchor="start" x="956.115" y="-347.2" font-family="Times,serif" font-size="14.00">memberphoto_updated_at :datetime</text>
<text text-anchor="start" x="956.115" y="-330.4" font-family="Times,serif" font-size="14.00">auth_token :string</text>
<text text-anchor="start" x="956.115" y="-313.6" font-family="Times,serif" font-size="14.00">password_reset_token :string</text>
<text text-anchor="start" x="956.115" y="-296.8" font-family="Times,serif" font-size="14.00">password_reset_sent_at :datetime</text>
<text text-anchor="start" x="956.115" y="-280" font-family="Times,serif" font-size="14.00">verified_user :boolean</text>
</g>
<!-- Product -->
<g id="node9" class="node"><title>Product</title>
<path fill="none" stroke="black" d="M1195.49,-374C1195.49,-374 1304.51,-374 1304.51,-374 1310.51,-374 1316.51,-380 1316.51,-386 1316.51,-386 1316.51,-462 1316.51,-462 1316.51,-468 1310.51,-474 1304.51,-474 1304.51,-474 1195.49,-474 1195.49,-474 1189.49,-474 1183.49,-468 1183.49,-462 1183.49,-462 1183.49,-386 1183.49,-386 1183.49,-380 1189.49,-374 1195.49,-374"/>
<text text-anchor="middle" x="1250" y="-456" font-family="Times,serif" font-size="14.00">Product</text>
<polyline fill="none" stroke="black" points="1183.49,-449.2 1316.51,-449.2 "/>
<text text-anchor="start" x="1191.49" y="-431.2" font-family="Times,serif" font-size="14.00">id :integer</text>
<text text-anchor="start" x="1191.49" y="-414.4" font-family="Times,serif" font-size="14.00">title :string</text>
<text text-anchor="start" x="1191.49" y="-397.6" font-family="Times,serif" font-size="14.00">created_at :datetime</text>
<text text-anchor="start" x="1191.49" y="-380.8" font-family="Times,serif" font-size="14.00">updated_at :datetime</text>
</g>
<!-- Review -->
<g id="node11" class="node"><title>Review</title>
<path fill="none" stroke="black" d="M1316,-9.2C1316,-9.2 1502,-9.2 1502,-9.2 1508,-9.2 1514,-15.2 1514,-21.2 1514,-21.2 1514,-214.8 1514,-214.8 1514,-220.8 1508,-226.8 1502,-226.8 1502,-226.8 1316,-226.8 1316,-226.8 1310,-226.8 1304,-220.8 1304,-214.8 1304,-214.8 1304,-21.2 1304,-21.2 1304,-15.2 1310,-9.2 1316,-9.2"/>
<text text-anchor="middle" x="1409" y="-208.8" font-family="Times,serif" font-size="14.00">Review</text>
<polyline fill="none" stroke="black" points="1304,-202 1514,-202 "/>
<text text-anchor="start" x="1312" y="-184" font-family="Times,serif" font-size="14.00">id :integer</text>
<text text-anchor="start" x="1312" y="-167.2" font-family="Times,serif" font-size="14.00">product_id :integer</text>
<text text-anchor="start" x="1312" y="-150.4" font-family="Times,serif" font-size="14.00">title :string</text>
<text text-anchor="start" x="1312" y="-133.6" font-family="Times,serif" font-size="14.00">content :text</text>
<text text-anchor="start" x="1312" y="-116.8" font-family="Times,serif" font-size="14.00">posted_by :string</text>
<text text-anchor="start" x="1312" y="-100" font-family="Times,serif" font-size="14.00">created_at :datetime</text>
<text text-anchor="start" x="1312" y="-83.2" font-family="Times,serif" font-size="14.00">updated_at :datetime</text>
<text text-anchor="start" x="1312" y="-66.4" font-family="Times,serif" font-size="14.00">reviewphoto_file_name :string</text>
<text text-anchor="start" x="1312" y="-49.6" font-family="Times,serif" font-size="14.00">reviewphoto_content_type :string</text>
<text text-anchor="start" x="1312" y="-32.8" font-family="Times,serif" font-size="14.00">reviewphoto_file_size :integer</text>
<text text-anchor="start" x="1312" y="-16" font-family="Times,serif" font-size="14.00">reviewphoto_updated_at :datetime</text>
</g>
<!-- Product&#45;&gt;Review -->
<g id="edge9" class="edge"><title>Product&#45;&gt;Review</title>
<path fill="none" stroke="#c5b50e" d="M1277.98,-366.383C1292.16,-337.952 1309.77,-303.038 1326,-272 1332.14,-260.255 1338.61,-248.044 1345.12,-235.871"/>
<ellipse fill="none" stroke="#c5b50e" cx="1276.05" cy="-370.262" rx="4.00002" ry="4.00002"/>
<polygon fill="#c5b50e" stroke="#c5b50e" points="1345.14,-235.836 1353.83,-229.147 1347.5,-231.429 1349.86,-227.022 1349.86,-227.022 1349.86,-227.022 1347.5,-231.429 1345.9,-224.896 1345.14,-235.836 1345.14,-235.836"/>
</g>
<!-- Recipe -->
<g id="node10" class="node"><title>Recipe</title>
<path fill="none" stroke="black" d="M1346.95,-323.6C1346.95,-323.6 1529.05,-323.6 1529.05,-323.6 1535.05,-323.6 1541.05,-329.6 1541.05,-335.6 1541.05,-335.6 1541.05,-512.4 1541.05,-512.4 1541.05,-518.4 1535.05,-524.4 1529.05,-524.4 1529.05,-524.4 1346.95,-524.4 1346.95,-524.4 1340.95,-524.4 1334.95,-518.4 1334.95,-512.4 1334.95,-512.4 1334.95,-335.6 1334.95,-335.6 1334.95,-329.6 1340.95,-323.6 1346.95,-323.6"/>
<text text-anchor="middle" x="1438" y="-506.4" font-family="Times,serif" font-size="14.00">Recipe</text>
<polyline fill="none" stroke="black" points="1334.95,-499.6 1541.05,-499.6 "/>
<text text-anchor="start" x="1342.95" y="-481.6" font-family="Times,serif" font-size="14.00">id :integer</text>
<text text-anchor="start" x="1342.95" y="-464.8" font-family="Times,serif" font-size="14.00">title :string</text>
<text text-anchor="start" x="1342.95" y="-448" font-family="Times,serif" font-size="14.00">content :text</text>
<text text-anchor="start" x="1342.95" y="-431.2" font-family="Times,serif" font-size="14.00">posted_by :string</text>
<text text-anchor="start" x="1342.95" y="-414.4" font-family="Times,serif" font-size="14.00">created_at :datetime</text>
<text text-anchor="start" x="1342.95" y="-397.6" font-family="Times,serif" font-size="14.00">updated_at :datetime</text>
<text text-anchor="start" x="1342.95" y="-380.8" font-family="Times,serif" font-size="14.00">recipephoto_file_name :string</text>
<text text-anchor="start" x="1342.95" y="-364" font-family="Times,serif" font-size="14.00">recipephoto_content_type :string</text>
<text text-anchor="start" x="1342.95" y="-347.2" font-family="Times,serif" font-size="14.00">recipephoto_file_size :integer</text>
<text text-anchor="start" x="1342.95" y="-330.4" font-family="Times,serif" font-size="14.00">recipephoto_updated_at :datetime</text>
</g>
<!-- ActiveRecord::Base -->
<g id="node12" class="node"><title>ActiveRecord::Base</title>
<ellipse fill="none" stroke="black" cx="769" cy="-655" rx="88.2033" ry="18"/>
<text text-anchor="middle" x="769" y="-649.4" font-family="Times,serif" font-size="14.00">ActiveRecord::Base</text>
</g>
<!-- ActiveRecord::Base&#45;&gt;Admin -->
<g id="edge1" class="edge"><title>ActiveRecord::Base&#45;&gt;Admin</title>
<path fill="none" stroke="black" d="M739.01,-638.036C720.059,-628.743 694.746,-617.756 671,-612 561.013,-585.338 258.77,-636.299 163,-576 140.406,-561.774 123.156,-539.338 110.255,-516.069"/>
</g>
<!-- ActiveRecord::Base&#45;&gt;Contact -->
<g id="edge2" class="edge"><title>ActiveRecord::Base&#45;&gt;Contact</title>
<path fill="none" stroke="black" d="M738.515,-638.077C719.59,-628.922 694.478,-618.066 671,-612 594.013,-592.109 380.507,-621.071 315,-576 286.107,-556.121 267.628,-521.898 256.136,-491.054"/>
</g>
<!-- ActiveRecord::Base&#45;&gt;Event -->
<g id="edge4" class="edge"><title>ActiveRecord::Base&#45;&gt;Event</title>
<path fill="none" stroke="black" d="M735.463,-638.183C716.754,-629.728 692.876,-619.538 671,-612 611.885,-591.631 586.605,-611.305 535,-576 520.946,-566.386 508.031,-554.364 496.377,-541.327"/>
</g>
<!-- ActiveRecord::Base&#45;&gt;Home -->
<g id="edge5" class="edge"><title>ActiveRecord::Base&#45;&gt;Home</title>
<path fill="none" stroke="black" d="M749.703,-637.364C733.098,-622.408 709.172,-599.274 692,-576 670.629,-547.035 651.365,-511.716 636.99,-482.522"/>
</g>
<!-- ActiveRecord::Base&#45;&gt;Invitee -->
<g id="edge6" class="edge"><title>ActiveRecord::Base&#45;&gt;Invitee</title>
<path fill="none" stroke="black" d="M756.802,-636.945C746.563,-621.721 732.447,-598.428 725,-576 682.073,-446.722 738.841,-397.552 686,-272 673.126,-241.411 652.377,-211.82 631.668,-186.946"/>
</g>
<!-- ActiveRecord::Base&#45;&gt;Item -->
<g id="edge7" class="edge"><title>ActiveRecord::Base&#45;&gt;Item</title>
<path fill="none" stroke="black" d="M773.735,-636.788C780.346,-612.76 792.851,-567.303 804.587,-524.644"/>
</g>
<!-- ActiveRecord::Base&#45;&gt;Member -->
<g id="edge8" class="edge"><title>ActiveRecord::Base&#45;&gt;Member</title>
<path fill="none" stroke="black" d="M815.215,-639.586C851.399,-626.778 901.677,-605.497 939,-576 942.002,-573.628 944.972,-571.164 947.907,-568.621"/>
</g>
<!-- ActiveRecord::Base&#45;&gt;Product -->
<g id="edge10" class="edge"><title>ActiveRecord::Base&#45;&gt;Product</title>
<path fill="none" stroke="black" d="M848.647,-646.998C951.65,-636.555 1123.81,-613.949 1174,-576 1206.89,-551.131 1226.57,-508.077 1237.63,-474.289"/>
</g>
<!-- ActiveRecord::Base&#45;&gt;Recipe -->
<g id="edge11" class="edge"><title>ActiveRecord::Base&#45;&gt;Recipe</title>
<path fill="none" stroke="black" d="M854.022,-650.01C989.509,-642.348 1247.07,-622.067 1325,-576 1346.7,-563.17 1365.57,-544.398 1381.35,-524.418"/>
</g>
<!-- ActiveRecord::Base&#45;&gt;Review -->
<g id="edge12" class="edge"><title>ActiveRecord::Base&#45;&gt;Review</title>
<path fill="none" stroke="black" d="M856.018,-651.754C1049.92,-645.851 1504.11,-626.703 1550,-576 1640.67,-475.827 1599.15,-397.855 1550,-272 1541.66,-250.634 1528.78,-230.454 1514.12,-212.186"/>
</g>
</g>
</svg>
